<svg width="196.000000" height="88.000000" viewBox="0 0 196 88" fill="none" xmlns="http://www.w3.org/2000/svg" xmlns:xlink="http://www.w3.org/1999/xlink">
	<desc>
			Created with Pixso.
	</desc>
	<defs>
		<clipPath id="clip1_2277">
			<rect id="deal 1" rx="0.000000" width="87.000000" height="87.000000" transform="translate(0.500000 0.500000)" fill="white" fill-opacity="0"/>
		</clipPath>
		<clipPath id="clip1_2287">
			<rect id="apartment 1" rx="0.000000" width="87.000000" height="87.000000" transform="translate(108.500000 0.500000)" fill="white" fill-opacity="0"/>
		</clipPath>
		<clipPath id="clip1_2296">
			<rect id="home 1" rx="0.000000" width="79.000000" height="79.000000" transform="translate(0.500000 0.500000)" fill="white" fill-opacity="0"/>
		</clipPath>
		<clipPath id="clip1_2305">
			<rect id="review 2" rx="0.000000" width="79.000000" height="79.000000" transform="translate(108.500000 4.500000)" fill="white" fill-opacity="0"/>
		</clipPath>
		<linearGradient x1="4.687011" y1="67.066162" x2="7.267150" y2="66.937256" id="paint_linear_1_2278_0" gradientUnits="userSpaceOnUse">
			<stop stop-color="#FF7A00"/>
			<stop offset="1.000000" stop-color="#FFB039"/>
		</linearGradient>
		<linearGradient x1="80.732910" y1="67.066162" x2="83.311035" y2="66.937256" id="paint_linear_1_2280_0" gradientUnits="userSpaceOnUse">
			<stop stop-color="#FF7A00"/>
			<stop offset="1.000000" stop-color="#FFB039"/>
		</linearGradient>
		<linearGradient x1="36.977539" y1="23.983549" x2="39.555664" y2="23.785122" id="paint_linear_1_2282_0" gradientUnits="userSpaceOnUse">
			<stop stop-color="#FF7A00"/>
			<stop offset="1.000000" stop-color="#FFB039"/>
		</linearGradient>
		<linearGradient x1="48.444336" y1="23.983549" x2="51.022461" y2="23.785122" id="paint_linear_1_2283_0" gradientUnits="userSpaceOnUse">
			<stop stop-color="#FF7A00"/>
			<stop offset="1.000000" stop-color="#FFB039"/>
		</linearGradient>
		<linearGradient x1="38.422852" y1="31.113949" x2="49.577267" y2="30.793495" id="paint_linear_1_2284_0" gradientUnits="userSpaceOnUse">
			<stop stop-color="#FF7A00"/>
			<stop offset="1.000000" stop-color="#FFB039"/>
		</linearGradient>
		<linearGradient x1="11.428711" y1="16.594992" x2="27.164335" y2="15.835691" id="paint_linear_1_2286_0" gradientUnits="userSpaceOnUse">
			<stop stop-color="#FF7A00"/>
			<stop offset="1.000000" stop-color="#FFB039"/>
		</linearGradient>
		<linearGradient x1="119.955078" y1="44.343410" x2="130.172241" y2="43.848232" id="paint_linear_1_2288_0" gradientUnits="userSpaceOnUse">
			<stop stop-color="#FF7A00"/>
			<stop offset="1.000000" stop-color="#FFB039"/>
		</linearGradient>
		<linearGradient x1="159.686523" y1="28.600063" x2="170.259521" y2="28.088032" id="paint_linear_1_2291_0" gradientUnits="userSpaceOnUse">
			<stop stop-color="#FF7A00"/>
			<stop offset="1.000000" stop-color="#FFB039"/>
		</linearGradient>
		<linearGradient x1="155.693359" y1="13.603147" x2="159.083862" y2="13.435435" id="paint_linear_1_2295_0" gradientUnits="userSpaceOnUse">
			<stop stop-color="#FF7A00"/>
			<stop offset="1.000000" stop-color="#FFB039"/>
		</linearGradient>
		<linearGradient x1="35.040039" y1="51.995846" x2="44.960049" y2="51.626125" id="paint_linear_1_2302_0" gradientUnits="userSpaceOnUse">
			<stop stop-color="#FF7A00"/>
			<stop offset="1.000000" stop-color="#FFB039"/>
		</linearGradient>
		<linearGradient x1="33.777344" y1="33.528877" x2="46.222645" y2="32.906609" id="paint_linear_1_2303_0" gradientUnits="userSpaceOnUse">
			<stop stop-color="#FF7A00"/>
			<stop offset="1.000000" stop-color="#FFB039"/>
		</linearGradient>
	</defs>
	<rect id="home 1" rx="0.000000" width="79.000000" height="79.000000" transform="translate(0.500000 0.500000)" fill="#FFFFFF" fill-opacity="0"/>
	<g clip-path="url(#clip1_2296)">
		<path id="Vector" d="M77.24 26.2L76.48 26.2L69.32 6.92C68.69 5.23 67.06 4.1 65.26 4.1L14.73 4.1C12.93 4.1 11.3 5.23 10.67 6.92L3.51 26.2L2.75 26.2C1.23 26.2 0 27.43 0 28.95L0 31.16C0 32.67 1.23 33.91 2.75 33.91L3.15 33.91L3.15 59.59C3.15 60.24 3.68 60.76 4.32 60.76C4.97 60.76 5.5 60.24 5.5 59.59L5.5 33.91L23.9 33.91C24.93 33.91 25.89 33.51 26.62 32.78L40 19.4L53.37 32.78C54.1 33.51 55.06 33.91 56.09 33.91L74.49 33.91L74.49 37.01C74.49 37.66 75.02 38.18 75.67 38.18C76.31 38.18 76.84 37.66 76.84 37.01L76.84 33.91L77.25 33.91C78.76 33.91 80 32.67 80 31.16L80 28.95C80 27.43 78.76 26.2 77.24 26.2ZM12.87 7.74C13.15 6.96 13.9 6.44 14.73 6.44L65.26 6.44C66.09 6.44 66.84 6.96 67.12 7.74L73.98 26.2L57.69 26.2L42.72 11.23C41.99 10.5 41.02 10.1 40 10.1C38.97 10.1 38 10.5 37.27 11.23L22.3 26.2L6.01 26.2L12.87 7.74ZM77.65 31.16C77.65 31.38 77.47 31.56 77.24 31.56L56.09 31.56C55.69 31.56 55.31 31.41 55.03 31.12L40.82 16.92C40.6 16.7 40.31 16.57 40 16.57C39.68 16.57 39.39 16.7 39.17 16.92L24.96 31.12C24.68 31.41 24.3 31.56 23.9 31.56L2.75 31.56C2.52 31.56 2.34 31.38 2.34 31.16L2.34 28.95C2.34 28.72 2.52 28.54 2.75 28.54L22.78 28.54C23.09 28.54 23.39 28.42 23.61 28.2L38.93 12.88C39.21 12.6 39.59 12.44 40 12.44C40.4 12.44 40.78 12.6 41.06 12.88L56.38 28.2C56.6 28.42 56.9 28.54 57.21 28.54L77.25 28.54C77.47 28.54 77.65 28.72 77.65 28.95L77.65 31.16L77.65 31.16Z" fill="#2B7AF1" fill-opacity="1.000000" fill-rule="nonzero"/>
		<path id="Vector" d="M70.46 66.42C71.1 66.42 71.63 65.9 71.63 65.25L71.63 44.41C71.63 43.77 71.1 43.24 70.46 43.24L54.67 43.24C54.03 43.24 53.5 43.77 53.5 44.41L53.5 65.25C53.5 65.9 54.03 66.42 54.67 66.42L70.46 66.42ZM69.29 59.03L63.74 59.03L63.74 53.48L69.29 53.48L69.29 59.03ZM61.39 59.03L55.85 59.03L55.85 53.48L61.39 53.48L61.39 59.03ZM69.29 64.08L55.85 64.08L55.85 61.37L69.29 61.37L69.29 64.08ZM69.29 51.13L63.74 51.13L63.74 45.59L69.29 45.59L69.29 51.13ZM61.39 45.59L61.39 51.13L55.85 51.13L55.85 45.59L61.39 45.59Z" fill="#2B7AF1" fill-opacity="1.000000" fill-rule="nonzero"/>
		<path id="Vector" d="M25.32 66.42C25.96 66.42 26.49 65.9 26.49 65.25L26.49 44.41C26.49 43.77 25.96 43.24 25.32 43.24L9.53 43.24C8.88 43.24 8.36 43.77 8.36 44.41L8.36 65.25C8.36 65.9 8.88 66.42 9.53 66.42L25.32 66.42ZM24.14 59.03L18.6 59.03L18.6 53.48L24.14 53.48L24.14 59.03ZM16.25 59.03L10.7 59.03L10.7 53.48L16.25 53.48L16.25 59.03ZM24.14 64.08L10.7 64.08L10.7 61.37L24.14 61.37L24.14 64.08ZM24.14 51.13L18.6 51.13L18.6 45.59L24.14 45.59L24.14 51.13ZM16.25 45.59L16.25 51.13L10.7 51.13L10.7 45.59L16.25 45.59Z" fill="#2B7AF1" fill-opacity="1.000000" fill-rule="nonzero"/>
		<path id="Vector" d="M43.78 48.29L36.21 48.29C35.56 48.29 35.04 48.82 35.04 49.47L35.04 54.52C35.04 55.16 35.56 55.69 36.21 55.69L43.78 55.69C44.43 55.69 44.96 55.16 44.96 54.52L44.96 49.47C44.96 48.82 44.43 48.29 43.78 48.29ZM42.61 53.34L37.38 53.34L37.38 50.64L42.61 50.64L42.61 53.34Z" fill="url(#paint_linear_1_2302_0)" fill-opacity="1.000000" fill-rule="nonzero"/>
		<path id="Vector" d="M46.22 33.52C46.22 30.09 43.43 27.3 40 27.3C36.56 27.3 33.77 30.09 33.77 33.52C33.77 36.95 36.56 39.75 40 39.75C43.43 39.75 46.22 36.96 46.22 33.52ZM36.12 33.52C36.12 31.39 37.86 29.64 40 29.64C42.13 29.64 43.87 31.39 43.87 33.52C43.87 35.66 42.13 37.4 40 37.4C37.86 37.4 36.12 35.66 36.12 33.52Z" fill="url(#paint_linear_1_2303_0)" fill-opacity="1.000000" fill-rule="nonzero"/>
		<path id="Vector" d="M78.82 68.18L76.84 68.18L76.84 42.5C76.84 41.85 76.31 41.32 75.67 41.32C75.02 41.32 74.49 41.85 74.49 42.5L74.49 68.18L50.01 68.18L50.01 44.41C50.01 43.77 49.48 43.24 48.83 43.24L31.16 43.24C30.51 43.24 29.98 43.77 29.98 44.41L29.98 68.18L5.5 68.18L5.5 65.07C5.5 64.43 4.97 63.9 4.32 63.9C3.68 63.9 3.15 64.43 3.15 65.07L3.15 68.18L1.17 68.18C0.52 68.18 0 68.71 0 69.35L0 74.72C0 75.37 0.52 75.89 1.17 75.89L78.82 75.89C79.47 75.89 80 75.37 80 74.72L80 69.35C80 68.71 79.47 68.18 78.82 68.18ZM32.33 59.63L34 59.63C34.64 59.63 35.17 59.11 35.17 58.46C35.17 57.81 34.64 57.29 34 57.29L32.33 57.29L32.33 45.59L47.66 45.59L47.66 68.18L32.33 68.18L32.33 59.63ZM77.65 73.55L2.34 73.55L2.34 70.52L77.65 70.52L77.65 73.55Z" fill="#2B7AF1" fill-opacity="1.000000" fill-rule="nonzero"/>
	</g>
	<path id="9" d="M117.67 11.35Q114.79 9.29 110.44 9.29Q107.79 9.29 105.6 10.28Q105.52 10.32 105.45 10.35Q103.94 11.06 102.85 12.19Q102.32 12.74 101.89 13.38Q101.53 13.92 101.27 14.49Q100.58 16.04 100.58 17.89Q100.58 19.66 101.24 21.12Q101.46 21.61 101.74 22.06Q102.22 22.79 102.82 23.39Q103.71 24.27 104.89 24.86Q105.21 25.02 105.54 25.16Q107.26 25.85 109.25 25.85Q112.4 25.85 114.46 24.36Q114.69 24.2 114.9 24.02Q114.64 26.61 113.21 28.08Q113.08 28.22 112.93 28.35Q112.67 28.58 112.38 28.78Q110.84 29.84 108.56 29.84Q105.75 29.84 103.92 28.55L101.33 33.66Q102.69 34.53 104.64 35.01Q106.59 35.5 108.71 35.5Q112.7 35.5 115.75 33.88Q117.04 33.19 118.09 32.23Q119.5 30.94 120.46 29.15Q122.14 26.03 122.14 21.71Q122.14 15.99 119.29 12.81Q119.15 12.65 119 12.5Q118.38 11.86 117.67 11.35ZM113.06 20.16Q112.19 20.74 110.94 20.74Q109.64 20.74 108.76 20.14Q108.59 20.02 108.43 19.88Q108.11 19.58 107.9 19.23Q107.48 18.52 107.48 17.58Q107.48 16.53 107.96 15.79Q108.16 15.49 108.43 15.24Q108.64 15.05 108.87 14.91Q109.71 14.37 110.9 14.37Q112.32 14.37 113.22 15.05Q113.35 15.14 113.47 15.25Q113.84 15.6 114.07 16.02Q114.43 16.68 114.43 17.53Q114.43 18.45 114.03 19.14Q113.81 19.54 113.45 19.86Q113.27 20.03 113.06 20.16Z" fill="#2B7AF1" fill-opacity="1.000000" fill-rule="evenodd"/>
	<path id="Квартир" d="M102.58 73.89L101.26 73.89L101.26 60.93L102.58 60.93L102.58 67.05L108.49 60.93L110.18 60.93L104.14 67.18L110.68 73.89L108.95 73.89L102.58 67.41L102.58 73.89ZM127.07 73.37Q126.01 74.16 124.36 74.16Q123.26 74.16 122.51 73.76C122.02 73.5 121.65 73.15 121.4 72.71C121.16 72.27 121.04 71.8 121.04 71.28Q121.04 70.28 121.52 69.65Q121.61 69.53 121.73 69.42Q122.42 68.74 123.51 68.45C123.95 68.35 124.43 68.25 124.95 68.17C125.47 68.08 125.99 68.01 126.51 67.94C127.03 67.87 127.51 67.81 127.94 67.75C127.93 66.87 127.72 66.22 127.33 65.8C126.93 65.37 126.27 65.15 125.35 65.15C124.68 65.15 124.12 65.3 123.65 65.6C123.2 65.9 122.88 66.37 122.69 67.02L121.4 66.64C121.63 65.77 122.08 65.1 122.75 64.62C123.43 64.14 124.3 63.9 125.36 63.9Q126.7 63.9 127.62 64.4C128.25 64.73 128.69 65.21 128.95 65.84C129.07 66.12 129.14 66.44 129.18 66.79Q129.23 67.31 129.23 67.85L129.23 73.89L128.06 73.89L128.06 72.28Q127.65 72.94 127.07 73.37ZM132.9 78.21L131.57 78.21L131.57 64.17L132.76 64.17L132.76 65.51C133.11 65.01 133.56 64.61 134.1 64.33C134.64 64.04 135.28 63.9 136 63.9C136.88 63.9 137.65 64.12 138.28 64.57C138.92 65.02 139.4 65.64 139.74 66.41C140.08 67.18 140.25 68.05 140.25 69.02C140.25 69.99 140.08 70.87 139.74 71.64C139.4 72.41 138.92 73.03 138.27 73.48Q138.17 73.56 138.07 73.62Q137.17 74.16 135.94 74.16C135.28 74.16 134.7 74.03 134.19 73.78C133.68 73.52 133.25 73.17 132.9 72.73L132.9 78.21ZM162.92 78.21L161.59 78.21L161.59 64.17L162.78 64.17L162.78 65.51C163.13 65.01 163.58 64.61 164.12 64.33C164.67 64.04 165.3 63.9 166.02 63.9Q167.14 63.9 167.99 64.38Q168.15 64.47 168.31 64.57Q168.53 64.73 168.72 64.91Q169.38 65.52 169.76 66.41C170.11 67.18 170.28 68.05 170.28 69.02C170.28 69.99 170.11 70.87 169.76 71.64C169.43 72.41 168.94 73.03 168.3 73.48Q168.2 73.56 168.09 73.62Q167.19 74.16 165.97 74.16C165.31 74.16 164.72 74.03 164.21 73.78C163.7 73.52 163.27 73.17 162.92 72.73L162.92 78.21ZM116.46 73.89L111.93 73.89L111.93 64.17L115.94 64.17C116.14 64.17 116.39 64.18 116.68 64.21C116.97 64.23 117.24 64.27 117.5 64.34C118.04 64.49 118.48 64.79 118.81 65.23C119.15 65.67 119.31 66.2 119.31 66.82C119.31 67.17 119.26 67.48 119.15 67.76C119.05 68.03 118.9 68.26 118.71 68.46C118.52 68.67 118.32 68.82 118.1 68.91C118.3 68.95 118.5 69.03 118.72 69.16C119.43 69.59 119.78 70.28 119.78 71.24C119.78 71.91 119.62 72.45 119.31 72.87Q119.13 73.1 118.92 73.28Q118.54 73.59 118.03 73.74Q117.67 73.83 117.24 73.86C116.97 73.88 116.71 73.89 116.46 73.89ZM146.19 73.89L144.87 73.89L144.87 65.39L141.42 65.39L141.42 64.17L149.64 64.17L149.64 65.39L146.19 65.39L146.19 73.89ZM157.97 64.17L159.08 64.17L159.08 73.89L157.79 73.89L157.79 66.32L152.46 73.89L151.34 73.89L151.34 64.17L152.63 64.17L152.63 71.68L157.97 64.17ZM134.1 72.42C134.55 72.76 135.12 72.93 135.81 72.93C136.49 72.93 137.05 72.76 137.5 72.41C137.95 72.07 138.28 71.6 138.51 71.01C138.74 70.42 138.85 69.76 138.85 69.02Q138.85 67.92 138.52 67.04Q138.25 66.33 137.75 65.86Q137.63 65.75 137.5 65.65C137.05 65.3 136.48 65.13 135.78 65.13C134.77 65.13 134.01 65.5 133.5 66.22Q132.76 67.3 132.76 69.02C132.76 69.77 132.87 70.44 133.09 71.03C133.31 71.62 133.65 72.08 134.1 72.42ZM164.12 72.42C164.57 72.76 165.14 72.93 165.83 72.93C166.51 72.93 167.07 72.76 167.52 72.41C167.97 72.07 168.31 71.6 168.53 71.01Q168.87 70.13 168.87 69.02Q168.87 67.92 168.54 67.04C168.32 66.45 167.98 65.99 167.52 65.65C167.07 65.3 166.5 65.13 165.8 65.13C164.79 65.13 164.03 65.5 163.53 66.22Q162.78 67.3 162.78 69.02C162.78 69.77 162.89 70.44 163.11 71.03C163.34 71.62 163.67 72.08 164.12 72.42ZM113.27 65.3L113.27 68.46L115.98 68.46Q116.22 68.46 116.51 68.44C116.7 68.41 116.87 68.37 117.02 68.32C117.33 68.21 117.56 68.02 117.7 67.76C117.85 67.5 117.93 67.21 117.93 66.9Q117.93 66.49 117.77 66.16Q117.73 66.08 117.68 66.01C117.53 65.74 117.29 65.56 116.97 65.46C116.76 65.38 116.52 65.33 116.27 65.32C116.03 65.31 115.87 65.3 115.8 65.3L113.27 65.3ZM123.25 72.76C123.57 72.93 123.99 73.02 124.51 73.02Q125.79 73.02 126.61 72.4Q126.68 72.35 126.75 72.29C127.32 71.8 127.67 71.19 127.79 70.46C127.85 70.22 127.88 69.96 127.89 69.68C127.91 69.39 127.92 69.13 127.92 68.91C127.28 68.99 126.61 69.07 125.9 69.16C125.2 69.25 124.58 69.37 124.04 69.51C123.63 69.64 123.24 69.83 122.89 70.09Q122.74 70.2 122.63 70.35Q122.36 70.71 122.36 71.28C122.36 71.56 122.43 71.84 122.57 72.11C122.71 72.37 122.94 72.59 123.25 72.76ZM113.27 69.6L113.27 72.76L116.4 72.76Q116.59 72.76 116.88 72.74C117.07 72.72 117.24 72.69 117.39 72.65C117.74 72.56 118 72.38 118.16 72.11C118.33 71.83 118.41 71.53 118.41 71.21C118.41 70.78 118.29 70.43 118.04 70.16C117.78 69.89 117.45 69.72 117.05 69.66C116.91 69.63 116.77 69.61 116.61 69.61C116.46 69.6 116.33 69.6 116.21 69.6L113.27 69.6Z" fill="#111111" fill-opacity="1.000000" fill-rule="evenodd"/>
</svg>
