<svg width="196.000000" height="88.000000" viewBox="0 0 196 88" fill="none" xmlns="http://www.w3.org/2000/svg" xmlns:xlink="http://www.w3.org/1999/xlink">
	<desc>
			Created with Pixso.
	</desc>
	<defs>
		<clipPath id="clip1_2155">
			<rect id="deal 1" rx="0.000000" width="87.000000" height="87.000000" transform="translate(0.500000 0.500000)" fill="white" fill-opacity="0"/>
		</clipPath>
		<clipPath id="clip1_2165">
			<rect id="apartment 1" rx="0.000000" width="87.000000" height="87.000000" transform="translate(108.500000 0.500000)" fill="white" fill-opacity="0"/>
		</clipPath>
		<clipPath id="clip1_2174">
			<rect id="home 1" rx="0.000000" width="79.000000" height="79.000000" transform="translate(108.500000 4.500000)" fill="white" fill-opacity="0"/>
		</clipPath>
		<clipPath id="clip1_2183">
			<rect id="review 2" rx="0.000000" width="79.000000" height="79.000000" transform="translate(108.500000 4.500000)" fill="white" fill-opacity="0"/>
		</clipPath>
		<linearGradient x1="4.687011" y1="67.066162" x2="7.267150" y2="66.937256" id="paint_linear_1_2156_0" gradientUnits="userSpaceOnUse">
			<stop stop-color="#FF7A00"/>
			<stop offset="1.000000" stop-color="#FFB039"/>
		</linearGradient>
		<linearGradient x1="80.732910" y1="67.066162" x2="83.311035" y2="66.937256" id="paint_linear_1_2158_0" gradientUnits="userSpaceOnUse">
			<stop stop-color="#FF7A00"/>
			<stop offset="1.000000" stop-color="#FFB039"/>
		</linearGradient>
		<linearGradient x1="36.977539" y1="23.983549" x2="39.555664" y2="23.785122" id="paint_linear_1_2160_0" gradientUnits="userSpaceOnUse">
			<stop stop-color="#FF7A00"/>
			<stop offset="1.000000" stop-color="#FFB039"/>
		</linearGradient>
		<linearGradient x1="48.444336" y1="23.983549" x2="51.022461" y2="23.785122" id="paint_linear_1_2161_0" gradientUnits="userSpaceOnUse">
			<stop stop-color="#FF7A00"/>
			<stop offset="1.000000" stop-color="#FFB039"/>
		</linearGradient>
		<linearGradient x1="38.422852" y1="31.113949" x2="49.577267" y2="30.793495" id="paint_linear_1_2162_0" gradientUnits="userSpaceOnUse">
			<stop stop-color="#FF7A00"/>
			<stop offset="1.000000" stop-color="#FFB039"/>
		</linearGradient>
		<linearGradient x1="11.428223" y1="16.594992" x2="27.163847" y2="15.835691" id="paint_linear_1_2164_0" gradientUnits="userSpaceOnUse">
			<stop stop-color="#FF7A00"/>
			<stop offset="1.000000" stop-color="#FFB039"/>
		</linearGradient>
	</defs>
	<rect id="deal 1" rx="0.000000" width="87.000000" height="87.000000" transform="translate(0.500000 0.500000)" fill="#FFFFFF" fill-opacity="0"/>
	<g clip-path="url(#clip1_2155)">
		<path id="Vector" d="M5.97 68.35C6.31 68.35 6.64 68.21 6.88 67.97C7.12 67.73 7.26 67.4 7.26 67.06C7.26 66.72 7.12 66.39 6.88 66.15C6.64 65.91 6.31 65.77 5.97 65.77C5.63 65.77 5.3 65.91 5.06 66.15C4.82 66.39 4.68 66.72 4.68 67.06C4.68 67.4 4.82 67.73 5.06 67.97C5.3 68.21 5.63 68.35 5.97 68.35Z" fill="url(#paint_linear_1_2156_0)" fill-opacity="1.000000" fill-rule="nonzero"/>
		<path id="Vector" d="M85.85 35.83L78.19 35.83C77.01 35.83 76.04 36.8 76.04 37.98L76.04 38.59L72.33 38.59C71.14 38.59 70.18 39.56 70.18 40.74L70.18 43.4L49.98 43.4C48.86 43.4 47.81 43.84 47.02 44.63L46.47 45.18L46.34 45.04C45.41 44.11 43.75 43.4 42.49 43.4L17.81 43.4L17.81 40.74C17.81 39.56 16.85 38.59 15.66 38.59L11.95 38.59L11.95 37.98C11.95 36.8 10.98 35.83 9.8 35.83L2.14 35.83C0.96 35.83 0 36.8 0 37.98L0 71.09C0 72.27 0.96 73.24 2.14 73.24L9.8 73.24C10.98 73.24 11.95 72.27 11.95 71.09L11.95 70.47L15.66 70.47C16.85 70.47 17.81 69.51 17.81 68.33L17.81 67.29L19.36 68.39C19.26 69.66 19.68 70.94 20.62 71.89C21.45 72.72 22.56 73.17 23.75 73.17C23.78 73.17 23.81 73.17 23.84 73.17C23.82 74.35 24.24 75.52 25.12 76.4C25.94 77.23 27.05 77.68 28.24 77.68C28.27 77.68 28.3 77.68 28.34 77.68C28.31 78.85 28.73 80.03 29.61 80.91C30.44 81.74 31.55 82.19 32.74 82.19C32.77 82.19 32.8 82.19 32.83 82.19C32.8 83.36 33.23 84.53 34.11 85.42C34.93 86.24 36.04 86.7 37.23 86.7C38.47 86.7 39.63 86.21 40.51 85.33L40.82 85.02C41.53 85.44 42.35 85.67 43.21 85.67C44.47 85.67 45.66 85.18 46.54 84.29L46.94 83.89C47.54 83.29 47.94 82.56 48.15 81.79C48.83 82.15 49.59 82.34 50.38 82.34C51.64 82.34 52.83 81.85 53.72 80.96L54.11 80.57C54.68 79.99 55.08 79.29 55.29 78.56C56.04 79.03 56.91 79.28 57.82 79.28C59.08 79.28 60.27 78.79 61.16 77.9L61.55 77.51C62.2 76.85 62.63 76.04 62.81 75.19C63.36 75.41 63.95 75.53 64.56 75.53C65.83 75.53 67.01 75.04 67.9 74.14L68.29 73.75C69.91 72.13 70.1 69.62 68.88 67.78L70.18 67.05L70.18 68.33C70.18 69.51 71.14 70.47 72.33 70.47L76.04 70.47L76.04 71.09C76.04 72.27 77.01 73.24 78.19 73.24L85.85 73.24C87.03 73.24 88 72.27 88 71.09L88 37.98C88 36.8 87.03 35.83 85.85 35.83ZM9.37 70.66L2.57 70.66L2.57 38.41L9.37 38.41L9.37 70.66ZM23.75 70.6C23.25 70.6 22.79 70.41 22.45 70.07C21.71 69.33 21.75 68.08 22.54 67.29L23.11 66.72C23.5 66.33 24.02 66.11 24.57 66.11C25.06 66.11 25.52 66.3 25.86 66.63C26.6 67.38 26.56 68.62 25.78 69.41L25.21 69.98C24.81 70.38 24.29 70.6 23.75 70.6ZM28.24 75.1C27.74 75.1 27.28 74.92 26.94 74.58C26.21 73.84 26.24 72.59 27.03 71.8L27.6 71.23C28 70.83 28.51 70.62 29.06 70.62C29.56 70.62 30.02 70.8 30.36 71.14C31.1 71.88 31.06 73.13 30.27 73.92L29.7 74.49C29.31 74.89 28.79 75.1 28.24 75.1ZM32.74 79.61C32.24 79.61 31.78 79.43 31.44 79.09C30.7 78.35 30.74 77.1 31.52 76.31C31.52 76.31 31.53 76.31 31.53 76.31L32.1 75.74C32.1 75.74 32.1 75.74 32.1 75.74C32.49 75.34 33.01 75.13 33.55 75.13C34.05 75.13 34.51 75.31 34.85 75.65C35.59 76.39 35.55 77.64 34.76 78.43L34.19 79C33.8 79.4 33.28 79.61 32.74 79.61ZM38.69 83.51C38.29 83.9 37.78 84.12 37.23 84.12C36.73 84.12 36.27 83.94 35.93 83.6C35.19 82.85 35.23 81.61 36.02 80.82L36.59 80.25C36.99 79.85 37.5 79.63 38.05 79.63C38.55 79.63 39.01 79.82 39.35 80.16C40.08 80.9 40.05 82.15 39.26 82.94L38.69 83.51ZM66.46 71.93L66.07 72.32C65.67 72.73 65.14 72.95 64.56 72.95C63.99 72.95 63.45 72.73 63.05 72.32L52.97 62.22C52.47 61.71 51.65 61.71 51.15 62.21C50.65 62.72 50.64 63.53 51.15 64.04L59.72 72.64C60.56 73.48 60.56 74.85 59.72 75.69L59.33 76.08C58.93 76.48 58.39 76.71 57.82 76.71C57.24 76.71 56.71 76.48 56.3 76.08L46.4 66.14C45.89 65.64 45.08 65.64 44.57 66.14C44.07 66.64 44.07 67.46 44.57 67.96L52.24 75.65L52.28 75.7C53.12 76.54 53.12 77.9 52.28 78.75L51.89 79.14C51.49 79.54 50.95 79.76 50.38 79.76C49.8 79.76 49.26 79.54 48.86 79.14L38.06 68.3C37.56 67.8 36.74 67.8 36.24 68.3C35.73 68.8 35.73 69.62 36.24 70.12L45.11 79.02C45.95 79.87 45.95 81.23 45.11 82.07L44.72 82.46C44.32 82.87 43.78 83.09 43.21 83.09C42.86 83.09 42.53 83.01 42.24 82.86C42.73 81.3 42.38 79.55 41.17 78.34C40.35 77.51 39.24 77.06 38.05 77.06C38.02 77.06 37.99 77.06 37.96 77.06C37.98 75.88 37.56 74.71 36.68 73.83C35.85 73 34.74 72.55 33.55 72.55C33.52 72.55 33.49 72.55 33.46 72.55C33.49 71.38 33.06 70.2 32.18 69.32C31.36 68.49 30.25 68.04 29.06 68.04C29.03 68.04 29 68.04 28.97 68.04C28.99 66.87 28.57 65.7 27.69 64.81C26.86 63.99 25.75 63.53 24.57 63.53C23.33 63.53 22.16 64.02 21.28 64.9L20.71 65.47C20.57 65.61 20.44 65.76 20.33 65.91L17.81 64.12L17.81 61.05C17.81 60.34 17.23 59.76 16.52 59.76C15.81 59.76 15.23 60.34 15.23 61.05L15.23 67.9L11.95 67.9L11.95 41.17L15.23 41.17L15.23 54.86C15.23 55.58 15.81 56.15 16.52 56.15C17.23 56.15 17.81 55.58 17.81 54.86L17.81 45.98L42.49 45.98C43.07 45.98 44.07 46.41 44.51 46.86L44.65 47L35.51 56.18C34.55 57.14 34.01 58.41 33.98 59.77C33.96 61.13 34.46 62.41 35.41 63.36C36.33 64.28 37.57 64.79 38.9 64.79C40.29 64.79 41.59 64.25 42.58 63.26L45.71 60.12C46.9 60.81 48.27 61.18 49.67 61.18C51.78 61.18 53.78 60.35 55.27 58.85L55.87 58.25L66.46 68.88C67.3 69.72 67.3 71.09 66.46 71.93ZM72.76 67.9L72.76 56.07C72.76 55.35 72.18 54.78 71.47 54.78C70.76 54.78 70.18 55.35 70.18 56.07L70.18 64.09L67.07 65.84L57.69 56.43L59.09 55.03C59.59 54.52 59.59 53.7 59.08 53.2C58.58 52.7 57.76 52.7 57.26 53.21L53.45 57.03C52.44 58.04 51.09 58.6 49.67 58.6C48.46 58.6 47.29 58.19 46.35 57.45C45.83 57.04 45.1 57.08 44.63 57.54L40.75 61.44C40.25 61.94 39.6 62.22 38.9 62.22C38.26 62.22 37.67 61.97 37.23 61.54C36.79 61.09 36.55 60.48 36.56 59.81C36.57 59.13 36.85 58.49 37.33 58L48.85 46.45C49.15 46.15 49.55 45.98 49.98 45.98L70.18 45.98L70.18 49.88C70.18 50.59 70.76 51.17 71.47 51.17C72.18 51.17 72.76 50.59 72.76 49.88L72.76 41.17L76.04 41.17L76.04 67.9L72.76 67.9ZM85.42 70.66L78.62 70.66L78.62 38.41L85.42 38.41L85.42 70.66Z" fill="#2B7AF1" fill-opacity="1.000000" fill-rule="nonzero"/>
		<path id="Vector" d="M82.02 68.35C82.36 68.35 82.69 68.21 82.93 67.97C83.17 67.73 83.31 67.4 83.31 67.06C83.31 66.72 83.17 66.39 82.93 66.15C82.69 65.91 82.36 65.77 82.02 65.77C81.68 65.77 81.35 65.91 81.11 66.15C80.87 66.39 80.73 66.72 80.73 67.06C80.73 67.4 80.87 67.73 81.11 67.97C81.35 68.21 81.68 68.35 82.02 68.35Z" fill="url(#paint_linear_1_2158_0)" fill-opacity="1.000000" fill-rule="nonzero"/>
		<path id="Vector" d="M44 41.42C46.65 41.42 49.26 40.7 51.53 39.35C52.14 38.98 52.34 38.19 51.98 37.58C51.61 36.97 50.82 36.77 50.21 37.13C48.34 38.25 46.19 38.84 44 38.84C37.28 38.84 31.82 33.36 31.82 26.62C31.82 19.88 37.28 14.4 44 14.4C50.71 14.4 56.17 19.88 56.17 26.62C56.17 28.84 55.58 31 54.45 32.89C54.09 33.5 54.29 34.29 54.9 34.66C55.51 35.02 56.3 34.82 56.67 34.21C58.03 31.92 58.75 29.3 58.75 26.62C58.75 18.46 52.13 11.82 44 11.82C35.86 11.82 29.24 18.46 29.24 26.62C29.24 34.78 35.86 41.42 44 41.42Z" fill="#2B7AF1" fill-opacity="1.000000" fill-rule="nonzero"/>
		<path id="Vector" d="M39.55 24.67L39.55 23.28C39.55 22.57 38.97 21.99 38.26 21.99C37.55 21.99 36.97 22.57 36.97 23.28L36.97 24.67C36.97 25.39 37.55 25.96 38.26 25.96C38.97 25.96 39.55 25.39 39.55 24.67Z" fill="url(#paint_linear_1_2160_0)" fill-opacity="1.000000" fill-rule="nonzero"/>
		<path id="Vector" d="M51.02 24.67L51.02 23.28C51.02 22.57 50.44 21.99 49.73 21.99C49.02 21.99 48.44 22.57 48.44 23.28L48.44 24.67C48.44 25.39 49.02 25.96 49.73 25.96C50.44 25.96 51.02 25.39 51.02 24.67Z" fill="url(#paint_linear_1_2161_0)" fill-opacity="1.000000" fill-rule="nonzero"/>
		<path id="Vector" d="M44 34.31C47.07 34.31 49.57 32.02 49.57 29.19C49.57 28.48 49 27.9 48.28 27.9C47.57 27.9 46.99 28.48 46.99 29.19C46.99 30.59 45.65 31.74 44 31.74C42.34 31.74 41 30.59 41 29.19C41 28.48 40.42 27.9 39.71 27.9C38.99 27.9 38.42 28.48 38.42 29.19C38.42 32.02 40.92 34.31 44 34.31Z" fill="url(#paint_linear_1_2162_0)" fill-opacity="1.000000" fill-rule="nonzero"/>
		<path id="Vector" d="M65.46 19.01C70.32 19.01 74.26 15.06 74.26 10.19C74.26 8.88 73.97 7.63 73.46 6.51L74.56 5.4C75.06 4.9 75.06 4.08 74.56 3.58C74.05 3.08 73.24 3.08 72.73 3.58L72.01 4.31C70.4 2.51 68.06 1.37 65.46 1.37C60.61 1.37 56.67 5.33 56.67 10.19C56.67 15.06 60.61 19.01 65.46 19.01ZM65.46 3.95C67.35 3.95 69.05 4.8 70.19 6.14L65.46 10.88L62.72 8.12C62.22 7.62 61.4 7.62 60.9 8.12C60.39 8.62 60.39 9.44 60.89 9.94L64.19 13.25C64.53 13.59 64.98 13.78 65.46 13.78C65.95 13.78 66.4 13.59 66.74 13.25L71.46 8.52C71.6 9.05 71.68 9.61 71.68 10.19C71.68 13.64 68.89 16.44 65.46 16.44C62.03 16.44 59.24 13.64 59.24 10.19C59.24 6.75 62.03 3.95 65.46 3.95Z" fill="#2B7AF1" fill-opacity="1.000000" fill-rule="nonzero"/>
		<path id="Vector" d="M14.04 18.85L13.59 21.51C13.44 22.37 13.79 23.23 14.5 23.75C14.89 24.03 15.36 24.18 15.84 24.18C16.21 24.18 16.58 24.09 16.91 23.92L19.29 22.67L21.68 23.92C22 24.09 22.37 24.18 22.74 24.18C23.23 24.18 23.69 24.03 24.08 23.75C24.79 23.23 25.14 22.37 24.99 21.51L24.54 18.86L26.47 16.98C27.09 16.36 27.32 15.47 27.04 14.63C26.77 13.8 26.07 13.2 25.2 13.08L22.53 12.69L21.34 10.27C20.95 9.49 20.17 9 19.29 9C18.41 9 17.63 9.49 17.24 10.27L16.05 12.69L13.38 13.08C12.52 13.2 11.81 13.8 11.54 14.63C11.27 15.47 11.49 16.36 12.12 16.98L14.04 18.85ZM17.09 15.14C17.51 15.08 17.87 14.82 18.06 14.44L19.29 11.94L20.52 14.44C20.71 14.82 21.07 15.08 21.49 15.14L24.24 15.54L22.25 17.48C21.95 17.78 21.81 18.2 21.88 18.62L22.35 21.36L19.89 20.07C19.7 19.97 19.5 19.92 19.29 19.92C19.08 19.92 18.88 19.97 18.69 20.07L16.23 21.36L16.7 18.62C16.77 18.2 16.63 17.78 16.33 17.48L14.34 15.54L17.09 15.14Z" fill="url(#paint_linear_1_2164_0)" fill-opacity="1.000000" fill-rule="nonzero"/>
	</g>
	<path id="40+" d="M140.8 38.5Q142.94 39.5 145.54 39.5Q147.97 39.5 150.01 38.6Q150.66 38.32 151.27 37.95Q151.72 37.67 152.14 37.34Q154.05 35.86 155.2 33.43Q156.63 30.46 156.63 26.39Q156.63 22.33 155.2 19.36Q154.05 16.93 152.14 15.45Q151.72 15.12 151.27 14.84Q150.64 14.46 149.97 14.17Q147.95 13.29 145.54 13.29Q142.97 13.29 140.84 14.27Q140.3 14.52 139.78 14.84Q139.36 15.1 138.97 15.4Q137.03 16.89 135.84 19.36Q134.42 22.33 134.42 26.39Q134.42 30.46 135.84 33.43Q137.03 35.91 138.97 37.39Q139.36 37.69 139.78 37.95Q140.28 38.25 140.8 38.5ZM129.24 34.17L132.98 34.17L132.98 28.52L129.24 28.52L129.24 24.24L122.51 24.24L122.51 28.52L117.39 28.52L127.65 13.8L120.27 13.8L108.97 29.53L108.97 34.17L122.29 34.17L122.29 39L129.24 39L129.24 34.17ZM171.68 29.02L177.76 29.02L177.76 23.76L171.68 23.76L171.68 17.83L166.14 17.83L166.14 23.76L160.02 23.76L160.02 29.02L166.14 29.02L166.14 34.96L171.68 34.96L171.68 29.02ZM146.78 33.43Q146.21 33.67 145.54 33.67Q144.83 33.67 144.23 33.4Q143.29 32.99 142.64 31.92Q141.58 30.17 141.58 26.39Q141.58 22.61 142.64 20.87Q143.29 19.8 144.23 19.39Q144.83 19.12 145.54 19.12Q146.21 19.12 146.78 19.37Q147.74 19.77 148.4 20.87Q149.46 22.61 149.46 26.39Q149.46 30.17 148.4 31.92Q147.74 33.02 146.78 33.43Z" fill="#2B7AF1" fill-opacity="1.000000" fill-rule="evenodd"/>
	<path id="Клиентов" d="M110.58 77.89L109.26 77.89L109.26 64.93L110.58 64.93L110.58 71.05L116.49 64.93L118.18 64.93L112.14 71.18L118.32 77.52L118.32 76.73C118.87 76.82 119.23 76.74 119.39 76.48Q119.65 76.08 119.79 75.29Q120.01 73.97 120.16 72.23Q120.31 70.48 120.46 68.17L127.06 68.17L127.06 77.89L125.75 77.89L125.75 69.44L121.68 69.44C121.62 70.28 121.55 71.12 121.48 71.95Q121.37 73.19 121.25 74.24C121.16 74.95 121.07 75.53 120.98 76.01C120.88 76.54 120.73 76.97 120.55 77.29C120.37 77.6 120.11 77.81 119.76 77.92C119.41 78.02 118.93 78.01 118.32 77.89L116.95 77.89L110.58 71.41L110.58 77.89ZM146.47 77.47C145.72 77.93 144.88 78.16 143.94 78.16C142.99 78.16 142.17 77.95 141.47 77.53C140.77 77.11 140.23 76.52 139.85 75.76C139.47 74.99 139.28 74.1 139.28 73.07Q139.28 71.48 139.85 70.32C140.23 69.55 140.76 68.95 141.44 68.53C142.13 68.11 142.95 67.9 143.88 67.9Q145.35 67.9 146.36 68.57Q146.85 68.89 147.23 69.37Q148.43 70.82 148.36 73.4L140.7 73.4C140.75 74.51 141.05 75.37 141.6 75.98C142.15 76.59 142.91 76.89 143.88 76.89C145.3 76.89 146.32 76.27 146.93 75.02L148.17 75.5C147.78 76.35 147.22 77 146.47 77.47ZM176.46 77.51C175.78 77.94 174.95 78.16 173.99 78.16C173.03 78.16 172.2 77.94 171.51 77.5C170.83 77.06 170.3 76.46 169.94 75.68C169.58 74.91 169.4 74.02 169.4 73.02C169.4 72 169.58 71.11 169.95 70.34Q170.33 69.55 170.94 69Q171.21 68.75 171.54 68.55C172.23 68.12 173.05 67.9 173.99 67.9C174.97 67.9 175.79 68.12 176.48 68.56C177.17 68.99 177.69 69.59 178.05 70.37C178.42 71.13 178.6 72.02 178.6 73.02C178.6 74.04 178.42 74.94 178.04 75.71Q177.69 76.45 177.14 76.98Q176.83 77.28 176.46 77.51ZM136.19 68.17L137.3 68.17L137.3 77.89L136.01 77.89L136.01 70.32L130.68 77.89L129.57 77.89L129.57 68.17L130.85 68.17L130.85 75.68L136.19 68.17ZM151.67 77.89L150.34 77.89L150.34 68.17L151.67 68.17L151.67 72.39L157.15 72.39L157.15 68.17L158.47 68.17L158.47 77.89L157.15 77.89L157.15 73.66L151.67 73.66L151.67 77.89ZM164.95 77.89L163.62 77.89L163.62 69.39L160.18 69.39L160.18 68.17L168.39 68.17L168.39 69.39L164.95 69.39L164.95 77.89ZM185.11 77.89L180.58 77.89L180.58 68.17L184.58 68.17Q184.89 68.17 185.32 68.21C185.62 68.23 185.89 68.27 186.14 68.34C186.69 68.49 187.12 68.79 187.45 69.23Q187.56 69.37 187.65 69.52Q187.96 70.09 187.96 70.82C187.96 71.17 187.9 71.48 187.8 71.76C187.69 72.03 187.55 72.26 187.36 72.46C187.17 72.67 186.97 72.82 186.74 72.91C186.94 72.95 187.15 73.03 187.36 73.16C188.07 73.59 188.43 74.28 188.43 75.24C188.43 75.91 188.27 76.45 187.95 76.87C187.63 77.29 187.21 77.58 186.67 77.74Q186.31 77.83 185.89 77.86C185.61 77.88 185.35 77.89 185.11 77.89ZM146.97 72.29C146.77 70.17 145.75 69.11 143.92 69.11C142.98 69.11 142.24 69.39 141.7 69.93C141.15 70.48 140.83 71.26 140.72 72.29L146.97 72.29ZM171.61 75.84C172.15 76.54 172.94 76.89 173.99 76.89Q175.18 76.89 175.92 76.32Q176.19 76.11 176.41 75.82Q177.2 74.74 177.2 73.02C177.2 71.85 176.93 70.92 176.4 70.22C175.87 69.52 175.07 69.17 173.99 69.17C172.91 69.17 172.1 69.53 171.58 70.25C171.06 70.96 170.8 71.89 170.8 73.02C170.8 74.19 171.07 75.13 171.61 75.84ZM181.91 69.3L181.91 72.46L184.63 72.46C184.78 72.46 184.96 72.45 185.15 72.44C185.34 72.41 185.51 72.37 185.66 72.32C185.98 72.21 186.2 72.02 186.35 71.76C186.5 71.5 186.57 71.21 186.57 70.9Q186.57 70.49 186.41 70.16Q186.38 70.08 186.33 70.01C186.17 69.74 185.94 69.56 185.62 69.46C185.4 69.38 185.17 69.33 184.92 69.32C184.67 69.31 184.51 69.3 184.45 69.3L181.91 69.3ZM181.91 73.6L181.91 76.76L185.04 76.76C185.17 76.76 185.33 76.76 185.52 76.74C185.71 76.72 185.88 76.69 186.03 76.65C186.39 76.56 186.64 76.38 186.81 76.11C186.97 75.83 187.06 75.53 187.06 75.21C187.06 74.78 186.93 74.43 186.68 74.16C186.43 73.89 186.1 73.72 185.69 73.66C185.56 73.63 185.41 73.61 185.26 73.61C185.11 73.6 184.97 73.6 184.85 73.6L181.91 73.6Z" fill="#111111" fill-opacity="1.000000" fill-rule="evenodd"/>
</svg>
