<svg width="70.688477" height="69.608887" viewBox="0 0 70.6885 69.6089" fill="none" xmlns="http://www.w3.org/2000/svg" xmlns:xlink="http://www.w3.org/1999/xlink">
	<desc>
			Created with Pixso.
	</desc>
	<defs>
		<linearGradient x1="-0.000004" y1="34.804398" x2="70.688591" y2="31.323975" id="paint_linear_1_2015_0" gradientUnits="userSpaceOnUse">
			<stop stop-color="#FF7A00"/>
			<stop offset="1.000000" stop-color="#FFB039"/>
		</linearGradient>
	</defs>
	<g opacity="0.500000">
		<path id="Vector" d="M70.68 10.87C60.1 16.91 54.8 24 54.8 32.16C59.31 32.76 63.05 34.9 66 38.57C68.95 42.25 70.42 46.5 70.42 51.33C70.42 56.47 68.99 60.8 66.13 64.32C63.26 67.84 59.66 69.6 55.32 69.6C50.46 69.6 46.25 67.31 42.7 62.73C39.14 58.15 37.36 52.59 37.36 46.05C37.36 26.42 46.82 11.07 65.74 0L70.68 10.87ZM33.32 10.87C22.65 16.91 17.31 24 17.31 32.16C21.91 32.76 25.68 34.9 28.63 38.57C31.58 42.25 33.06 46.5 33.06 51.33C33.06 56.47 31.61 60.8 28.7 64.32C25.79 67.84 22.17 69.6 17.83 69.6C12.97 69.6 8.78 67.31 5.27 62.73C1.75 58.15 0 52.59 0 46.05C0 26.42 9.41 11.07 28.24 0L33.32 10.87Z" fill="url(#paint_linear_1_2015_0)" fill-opacity="1.000000" fill-rule="evenodd"/>
	</g>
</svg>
