<svg width="135.793457" height="53.999756" viewBox="0 0 135.793 53.9998" fill="none" xmlns="http://www.w3.org/2000/svg" xmlns:xlink="http://www.w3.org/1999/xlink">
	<desc>
			Created with Pixso.
	</desc>
	<defs/>
	<path id="Vector" d="M117.45 0.24L117.45 3.91L128.09 3.91C128.47 3.91 128.87 3.96 129.29 4.07C129.71 4.18 130.08 4.44 130.41 4.85C130.68 5.17 130.85 5.51 130.92 5.86C130.99 6.22 131.02 6.56 131.02 6.88L131.02 8.39L121.65 8.39C121.08 8.39 120.44 8.45 119.75 8.58C119.06 8.7 118.37 9.06 117.69 9.66C116.88 10.36 116.37 11.18 116.16 12.1C115.96 13.02 115.86 13.96 115.86 14.91C115.86 15.32 115.87 15.78 115.9 16.3C115.93 16.82 116 17.34 116.12 17.89C116.25 18.43 116.44 18.95 116.69 19.46C116.95 19.96 117.3 20.4 117.73 20.78C118.36 21.33 119.02 21.64 119.71 21.72C120.4 21.8 121.05 21.84 121.65 21.84L131.96 21.84C132.47 21.84 133 21.79 133.55 21.7C134.09 21.6 134.55 21.37 134.93 20.99C135.31 20.61 135.55 20.14 135.64 19.6C135.74 19.06 135.79 18.59 135.79 18.21L135.79 7.01C135.79 5.78 135.64 4.74 135.34 3.89C135.04 3.03 134.66 2.37 134.2 1.91C133.71 1.39 133.07 0.99 132.28 0.69C131.5 0.39 130.64 0.24 129.72 0.24L117.45 0.24ZM131.02 12.06L131.02 17.03C131.02 17.2 131.01 17.35 130.98 17.5C130.95 17.65 130.86 17.79 130.69 17.93C130.53 18.07 130.35 18.14 130.14 18.15C129.94 18.17 129.77 18.17 129.63 18.17L122.99 18.17C122.69 18.17 122.4 18.11 122.11 17.97C121.83 17.83 121.6 17.68 121.44 17.52C121.14 17.22 120.96 16.83 120.89 16.34C120.82 15.85 120.79 15.44 120.79 15.12C120.79 14.33 120.86 13.77 120.99 13.45C121.13 13.12 121.24 12.9 121.32 12.79C121.59 12.44 121.91 12.23 122.28 12.16C122.64 12.09 122.91 12.06 123.07 12.06L131.02 12.06Z" fill="#2B7AF1" fill-opacity="1.000000" fill-rule="nonzero"/>
	<path id="Vector" d="M92.83 18.17L90.87 18.17L90.87 21.84L115.21 21.84L115.21 18.17L113.29 18.17L106.52 2.11C106.31 1.57 105.96 1.08 105.48 0.65C105.01 0.21 104.2 0 103.06 0C101.95 0 101.14 0.2 100.65 0.61C100.17 1.01 99.8 1.52 99.55 2.11L92.83 18.17ZM102.61 4.76C102.67 4.63 102.73 4.5 102.81 4.38C102.9 4.25 102.98 4.19 103.06 4.19C103.2 4.19 103.28 4.26 103.32 4.4C103.37 4.53 103.41 4.65 103.47 4.76L108.64 18.17L97.48 18.17L102.61 4.76Z" fill="#2B7AF1" fill-opacity="1.000000" fill-rule="nonzero"/>
	<path id="Vector" d="M89.65 21.84L89.65 0.24L84.88 0.24L84.88 8.88L74.57 8.88L74.57 0.24L69.8 0.24L69.8 21.84L74.57 21.84L74.57 12.55L84.88 12.55L84.88 21.84L89.65 21.84Z" fill="#2B7AF1" fill-opacity="1.000000" fill-rule="nonzero"/>
	<path id="Vector" d="M66.42 21.84L66.42 18.17L55.86 18.17C55.43 18.17 54.98 18.15 54.54 18.09C54.09 18.04 53.66 17.92 53.25 17.75C52.84 17.57 52.49 17.31 52.19 16.97C51.89 16.63 51.66 16.18 51.5 15.61C51.42 15.28 51.35 14.82 51.3 14.22C51.24 13.62 51.21 13.09 51.21 12.63L63.77 12.63C64.2 12.63 64.62 12.58 65.01 12.47C65.4 12.36 65.76 12.14 66.09 11.82C66.55 11.35 66.84 10.83 66.95 10.25C67.06 9.66 67.11 9.1 67.11 8.55C67.11 7.88 67.07 7.2 66.99 6.54C66.91 5.87 66.75 5.23 66.52 4.62C66.29 4.01 65.98 3.45 65.58 2.93C65.19 2.41 64.68 1.95 64.05 1.54C63.05 0.92 61.93 0.53 60.69 0.38C59.45 0.23 58.2 0.16 56.92 0.16C56.4 0.16 55.81 0.17 55.13 0.2C54.45 0.23 53.74 0.3 53.01 0.42C52.27 0.55 51.55 0.74 50.83 1.01C50.11 1.29 49.45 1.68 48.85 2.2C48.25 2.71 47.78 3.28 47.44 3.91C47.1 4.53 46.85 5.22 46.67 5.97C46.49 6.71 46.38 7.53 46.34 8.41C46.3 9.3 46.28 10.24 46.28 11.24C46.28 12.68 46.36 14.1 46.53 15.48C46.69 16.87 47.12 18.08 47.83 19.11C48.27 19.74 48.75 20.23 49.3 20.6C49.84 20.97 50.4 21.24 50.97 21.43C51.54 21.62 52.12 21.74 52.72 21.78C53.32 21.82 53.89 21.84 54.43 21.84L66.42 21.84ZM51.21 8.96C51.24 8.26 51.29 7.6 51.36 6.99C51.42 6.37 51.7 5.8 52.19 5.25C52.52 4.9 52.88 4.62 53.27 4.42C53.67 4.21 54.07 4.07 54.48 3.99C54.88 3.91 55.28 3.86 55.66 3.85C56.04 3.83 56.39 3.83 56.72 3.83C57.4 3.83 58.1 3.87 58.82 3.97C59.54 4.06 60.19 4.34 60.79 4.8C61.15 5.08 61.46 5.46 61.75 5.95C62.04 6.43 62.18 7.02 62.18 7.7C62.18 8 62.12 8.28 61.99 8.55C61.87 8.83 61.58 8.96 61.12 8.96L51.21 8.96Z" fill="#2B7AF1" fill-opacity="1.000000" fill-rule="nonzero"/>
	<path id="Vector" d="M2.47 0.24L2.47 3.91L13.1 3.91C13.49 3.91 13.89 3.96 14.31 4.07C14.73 4.18 15.1 4.44 15.43 4.85C15.7 5.17 15.87 5.51 15.94 5.86C16.01 6.22 16.04 6.56 16.04 6.88L16.04 8.39L6.67 8.39C6.09 8.39 5.46 8.45 4.77 8.58C4.08 8.7 3.39 9.06 2.71 9.66C1.9 10.36 1.39 11.18 1.18 12.1C0.98 13.02 0.88 13.96 0.88 14.91C0.88 15.32 0.89 15.78 0.92 16.3C0.95 16.82 1.02 17.34 1.14 17.89C1.26 18.43 1.45 18.95 1.71 19.46C1.97 19.96 2.32 20.4 2.75 20.78C3.38 21.33 4.04 21.64 4.73 21.72C5.42 21.8 6.07 21.84 6.67 21.84L16.98 21.84C17.49 21.84 18.02 21.79 18.57 21.7C19.11 21.6 19.57 21.37 19.95 20.99C20.33 20.61 20.57 20.14 20.67 19.6C20.76 19.06 20.81 18.59 20.81 18.21L20.81 7.01C20.81 5.78 20.66 4.74 20.36 3.89C20.06 3.03 19.68 2.37 19.22 1.91C18.73 1.39 18.09 0.99 17.3 0.69C16.52 0.39 15.66 0.24 14.74 0.24L2.47 0.24ZM16.04 12.06L16.04 17.03C16.04 17.2 16.03 17.35 16 17.5C15.97 17.65 15.88 17.79 15.71 17.93C15.55 18.07 15.37 18.14 15.16 18.15C14.96 18.17 14.79 18.17 14.65 18.17L8.01 18.17C7.71 18.17 7.42 18.11 7.13 17.97C6.85 17.83 6.62 17.68 6.46 17.52C6.16 17.22 5.98 16.83 5.91 16.34C5.84 15.85 5.81 15.44 5.81 15.12C5.81 14.33 5.88 13.77 6.01 13.45C6.15 13.12 6.26 12.9 6.34 12.79C6.61 12.44 6.93 12.23 7.3 12.16C7.66 12.09 7.93 12.06 8.09 12.06L16.04 12.06Z" fill="#2B7AF1" fill-opacity="1.000000" fill-rule="nonzero"/>
	<path id="Vector" d="M5.93 27.3L129.69 27.3C132.95 27.3 135.63 29.97 135.63 33.24L135.63 48.06C135.63 51.32 132.95 53.99 129.69 53.99L5.93 53.99C2.67 53.99 0 51.32 0 48.06L0 33.24C0 29.97 2.67 27.3 5.93 27.3Z" fill="#FF7D03" fill-opacity="1.000000" fill-rule="evenodd"/>
	<path id="Vector" d="M19.31 47.33L14.17 41.96C14.08 41.87 13.99 41.74 13.89 41.57C13.79 41.39 13.74 41.24 13.74 41.12C13.74 40.93 13.81 40.74 13.95 40.57C14.08 40.39 14.2 40.25 14.31 40.15L18.88 35.28L15.72 35.28L11.88 39.55C11.71 39.75 11.53 39.99 11.33 40.26C11.14 40.53 11.04 40.82 11.04 41.12C11.04 41.43 11.12 41.7 11.28 41.94C11.43 42.18 11.58 42.38 11.72 42.53L16.11 47.33L19.31 47.33ZM10.51 47.33L10.51 35.28L7.85 35.28L7.85 47.33L10.51 47.33ZM28.54 41.08C28.85 41.05 29.12 40.97 29.36 40.84C29.6 40.71 29.81 40.56 29.97 40.37C30.22 40.1 30.37 39.78 30.43 39.41C30.49 39.04 30.52 38.69 30.52 38.37C30.52 38.08 30.49 37.73 30.43 37.3C30.37 36.88 30.19 36.49 29.88 36.14C29.7 35.93 29.49 35.77 29.26 35.66C29.02 35.54 28.78 35.46 28.54 35.39C28.3 35.33 28.06 35.3 27.81 35.29C27.57 35.28 27.35 35.28 27.16 35.28L21.7 35.28C21.44 35.28 21.17 35.31 20.89 35.36C20.61 35.41 20.34 35.55 20.08 35.76C19.83 35.97 19.67 36.21 19.62 36.46C19.57 36.72 19.54 36.96 19.54 37.17L19.54 45.56C19.54 45.75 19.56 45.98 19.61 46.24C19.65 46.5 19.78 46.72 19.99 46.9C20.21 47.09 20.46 47.22 20.76 47.26C21.05 47.31 21.33 47.33 21.59 47.33L27.31 47.33C27.66 47.33 28.06 47.3 28.52 47.23C28.97 47.16 29.38 46.94 29.75 46.58C29.94 46.38 30.1 46.16 30.2 45.92C30.31 45.68 30.39 45.44 30.44 45.19C30.49 44.95 30.53 44.72 30.54 44.5C30.56 44.28 30.57 44.09 30.57 43.92C30.57 43.6 30.54 43.26 30.49 42.91C30.43 42.55 30.28 42.22 30.04 41.92C29.91 41.75 29.71 41.59 29.45 41.43C29.19 41.27 28.89 41.17 28.54 41.12L28.54 41.08ZM22.2 40.08L22.2 37.92C22.2 37.84 22.21 37.77 22.22 37.69C22.24 37.61 22.28 37.54 22.36 37.46C22.43 37.39 22.52 37.35 22.61 37.34C22.7 37.33 22.78 37.33 22.86 37.33L26.36 37.33C26.54 37.33 26.72 37.34 26.91 37.37C27.09 37.4 27.25 37.49 27.41 37.62C27.57 37.77 27.67 37.95 27.71 38.15C27.75 38.34 27.77 38.53 27.77 38.71C27.77 38.88 27.75 39.05 27.71 39.23C27.67 39.4 27.58 39.56 27.43 39.71C27.26 39.88 27.08 39.98 26.87 40.02C26.67 40.06 26.48 40.08 26.31 40.08L22.2 40.08ZM22.2 42.12L26.36 42.12C26.51 42.12 26.7 42.14 26.92 42.18C27.14 42.22 27.33 42.33 27.5 42.51C27.65 42.68 27.74 42.86 27.77 43.07C27.8 43.27 27.81 43.47 27.81 43.65C27.81 43.84 27.8 44.06 27.76 44.31C27.72 44.55 27.62 44.75 27.45 44.92C27.28 45.09 27.09 45.19 26.86 45.23C26.63 45.26 26.42 45.28 26.22 45.28L22.9 45.28C22.8 45.28 22.7 45.28 22.6 45.26C22.5 45.25 22.41 45.19 22.34 45.1C22.29 45.03 22.26 44.94 22.23 44.84C22.21 44.74 22.2 44.65 22.2 44.56L22.2 42.12ZM32.63 35.28L32.63 37.33L38.57 37.33C38.78 37.33 39 37.36 39.24 37.42C39.47 37.48 39.68 37.62 39.86 37.85C40.01 38.03 40.11 38.22 40.15 38.42C40.19 38.62 40.2 38.8 40.2 38.99L40.2 39.83L34.98 39.83C34.66 39.83 34.31 39.86 33.92 39.93C33.53 40 33.15 40.2 32.77 40.53C32.32 40.93 32.03 41.38 31.92 41.9C31.8 42.41 31.75 42.93 31.75 43.47C31.75 43.69 31.75 43.95 31.77 44.24C31.79 44.53 31.83 44.82 31.89 45.12C31.96 45.43 32.07 45.72 32.21 46C32.36 46.28 32.55 46.53 32.79 46.74C33.14 47.04 33.51 47.22 33.9 47.26C34.28 47.31 34.64 47.33 34.98 47.33L40.73 47.33C41.02 47.33 41.31 47.3 41.61 47.25C41.92 47.2 42.17 47.06 42.39 46.85C42.6 46.64 42.73 46.38 42.78 46.08C42.84 45.78 42.86 45.52 42.86 45.31L42.86 39.05C42.86 38.37 42.78 37.79 42.61 37.32C42.45 36.84 42.24 36.47 41.98 36.21C41.7 35.92 41.35 35.7 40.91 35.53C40.47 35.36 39.99 35.28 39.48 35.28L32.63 35.28ZM40.2 41.87L40.2 44.65C40.2 44.74 40.2 44.83 40.18 44.91C40.17 44.99 40.11 45.07 40.02 45.15C39.93 45.22 39.83 45.26 39.72 45.27C39.6 45.28 39.51 45.28 39.43 45.28L35.73 45.28C35.56 45.28 35.4 45.25 35.24 45.17C35.08 45.09 34.95 45.01 34.86 44.92C34.7 44.75 34.59 44.53 34.55 44.26C34.52 43.99 34.5 43.76 34.5 43.58C34.5 43.14 34.54 42.83 34.61 42.65C34.69 42.46 34.75 42.34 34.79 42.28C34.95 42.09 35.12 41.97 35.33 41.93C35.53 41.89 35.68 41.87 35.77 41.87L40.2 41.87ZM47.34 47.33L50.71 47.33C51.01 47.33 51.35 47.32 51.72 47.3C52.09 47.27 52.47 47.2 52.86 47.09C53.24 46.98 53.61 46.8 53.97 46.57C54.33 46.33 54.65 46.01 54.94 45.6C55.15 45.3 55.32 44.97 55.45 44.6C55.58 44.24 55.67 43.86 55.74 43.47C55.81 43.07 55.85 42.67 55.87 42.26C55.88 41.85 55.89 41.45 55.89 41.06C55.89 40.72 55.88 40.36 55.87 39.98C55.85 39.59 55.8 39.2 55.72 38.8C55.64 38.41 55.51 38.02 55.33 37.65C55.16 37.27 54.92 36.92 54.62 36.6C54.33 36.3 54.02 36.06 53.69 35.88C53.35 35.71 53.02 35.58 52.7 35.49C52.37 35.39 52.07 35.34 51.79 35.32C51.51 35.29 51.27 35.28 51.07 35.28L46.87 35.28C46.64 35.28 46.39 35.3 46.12 35.35C45.84 35.39 45.59 35.5 45.37 35.67C45.21 35.79 45.06 35.97 44.91 36.2C44.76 36.44 44.68 36.75 44.68 37.15L44.68 51.19L47.34 51.19L47.34 47.33ZM47.34 45.28L47.34 37.9C47.34 37.74 47.4 37.61 47.52 37.49C47.57 37.46 47.63 37.42 47.7 37.38C47.76 37.35 47.83 37.33 47.89 37.33L50.5 37.33C51.09 37.33 51.59 37.46 51.98 37.71C52.37 37.97 52.66 38.3 52.82 38.69C52.9 38.86 52.97 39.13 53.04 39.5C53.11 39.87 53.14 40.46 53.14 41.28C53.14 42.18 53.09 42.84 52.98 43.26C52.87 43.68 52.76 43.99 52.64 44.17C52.49 44.41 52.24 44.66 51.89 44.91C51.54 45.16 51.03 45.28 50.37 45.28L47.34 45.28ZM63.67 47.33L63.67 37.33L68.19 37.33L68.19 35.28L56.48 35.28L56.48 37.33L61.01 37.33L61.01 47.33L63.67 47.33ZM80.9 47.33L80.9 36.99C80.9 36.53 80.82 36.18 80.67 35.94C80.52 35.7 80.35 35.52 80.16 35.39C79.97 35.27 79.78 35.2 79.58 35.18C79.38 35.16 79.24 35.14 79.15 35.14C78.87 35.14 78.59 35.19 78.31 35.29C78.02 35.39 77.75 35.61 77.51 35.96L72.14 43.85C72.1 43.93 72.05 44 72.01 44.07C71.96 44.14 71.9 44.17 71.83 44.17C71.74 44.17 71.68 44.14 71.67 44.09C71.65 44.04 71.64 43.96 71.64 43.85L71.76 35.28L69.1 35.28L69.1 45.76C69.1 45.93 69.12 46.11 69.16 46.31C69.19 46.5 69.27 46.69 69.39 46.85C69.52 47.02 69.69 47.16 69.92 47.28C70.14 47.41 70.46 47.47 70.85 47.47C71.3 47.47 71.65 47.39 71.9 47.23C72.14 47.07 72.37 46.83 72.58 46.51L77.87 38.76C77.97 38.62 78.03 38.54 78.08 38.5C78.12 38.46 78.16 38.44 78.19 38.44C78.28 38.44 78.33 38.47 78.33 38.53C78.33 38.59 78.33 38.67 78.33 38.76L78.24 47.33L80.9 47.33ZM85.38 47.33L88.74 47.33C89.04 47.33 89.38 47.32 89.75 47.3C90.12 47.27 90.5 47.2 90.89 47.09C91.28 46.98 91.65 46.8 92 46.57C92.36 46.33 92.68 46.01 92.97 45.6C93.18 45.3 93.35 44.97 93.48 44.6C93.61 44.24 93.71 43.86 93.78 43.47C93.84 43.07 93.89 42.67 93.9 42.26C93.92 41.85 93.92 41.45 93.92 41.06C93.92 40.72 93.92 40.36 93.9 39.98C93.89 39.59 93.84 39.2 93.75 38.8C93.67 38.41 93.54 38.02 93.37 37.65C93.19 37.27 92.95 36.92 92.65 36.6C92.36 36.3 92.05 36.06 91.72 35.88C91.39 35.71 91.06 35.58 90.73 35.49C90.4 35.39 90.1 35.34 89.82 35.32C89.54 35.29 89.3 35.28 89.1 35.28L84.9 35.28C84.67 35.28 84.42 35.3 84.15 35.35C83.88 35.39 83.63 35.5 83.4 35.67C83.25 35.79 83.1 35.97 82.94 36.2C82.79 36.44 82.72 36.75 82.72 37.15L82.72 51.19L85.38 51.19L85.38 47.33ZM85.38 45.28L85.38 37.9C85.38 37.74 85.44 37.61 85.56 37.49C85.6 37.46 85.66 37.42 85.73 37.38C85.8 37.35 85.86 37.33 85.92 37.33L88.54 37.33C89.13 37.33 89.62 37.46 90.01 37.71C90.41 37.97 90.69 38.3 90.86 38.69C90.93 38.86 91 39.13 91.07 39.5C91.14 39.87 91.17 40.46 91.17 41.28C91.17 42.18 91.12 42.84 91.01 43.26C90.91 43.68 90.79 43.99 90.67 44.17C90.52 44.41 90.27 44.66 89.92 44.91C89.57 45.16 89.07 45.28 88.4 45.28L85.38 45.28Z" fill="#FFFFFF" fill-opacity="1.000000" fill-rule="nonzero"/>
	<path id="Vector" d="M100.25 49.38L108.96 49.38C109.19 49.38 109.44 49.38 109.72 49.37C109.99 49.36 110.27 49.33 110.57 49.26C110.86 49.19 111.15 49.1 111.44 48.96C111.73 48.83 112 48.64 112.25 48.4C112.51 48.13 112.72 47.83 112.89 47.48C113.05 47.14 113.17 46.78 113.24 46.4C113.32 46.02 113.37 45.63 113.39 45.23C113.42 44.82 113.43 44.42 113.43 44.03C113.43 43.44 113.39 42.84 113.31 42.23C113.22 41.62 112.97 41.04 112.54 40.5C112.11 39.96 111.65 39.6 111.15 39.44C110.64 39.27 110.13 39.19 109.6 39.19L104.84 39.19C104.66 39.19 104.46 39.17 104.23 39.13C104 39.09 103.81 39 103.68 38.87C103.55 38.72 103.47 38.54 103.45 38.33C103.42 38.12 103.41 37.92 103.41 37.74L103.41 35.59C103.41 35.49 103.42 35.38 103.42 35.24C103.43 35.11 103.48 35.01 103.56 34.92C103.63 34.84 103.72 34.78 103.84 34.75C103.97 34.72 104.09 34.7 104.23 34.7L112.86 34.7L112.86 32.11L102.45 32.11C102.37 32.11 102.26 32.12 102.12 32.12C101.98 32.13 101.82 32.16 101.66 32.2C101.5 32.24 101.33 32.3 101.17 32.38C101 32.46 100.85 32.58 100.7 32.73C100.57 32.86 100.44 33.05 100.33 33.31C100.21 33.56 100.15 33.9 100.15 34.33L100.15 38.7C100.15 38.85 100.16 39.03 100.18 39.25C100.2 39.48 100.23 39.71 100.29 39.96C100.35 40.2 100.44 40.45 100.57 40.69C100.7 40.92 100.89 41.13 101.14 41.29C101.31 41.42 101.5 41.52 101.72 41.59C101.94 41.65 102.17 41.7 102.39 41.72C102.61 41.75 102.83 41.76 103.04 41.77C103.26 41.78 103.44 41.78 103.61 41.78L108.2 41.78C108.66 41.78 109 41.86 109.23 42.01C109.46 42.15 109.62 42.29 109.7 42.42C109.87 42.66 109.97 42.94 110.01 43.29C110.05 43.63 110.07 43.92 110.07 44.15C110.07 44.48 110.04 44.83 109.99 45.2C109.93 45.57 109.83 45.85 109.7 46.05C109.47 46.4 109.18 46.61 108.84 46.68C108.49 46.76 108.2 46.79 107.95 46.79L100.25 46.79L100.25 49.38ZM116.19 49.38L123.97 49.38C124.23 49.38 124.54 49.37 124.9 49.35C125.27 49.32 125.64 49.24 126.01 49.11C126.39 48.98 126.76 48.77 127.12 48.48C127.49 48.19 127.8 47.79 128.06 47.26C128.32 46.73 128.49 46.17 128.56 45.56C128.62 44.95 128.65 44.33 128.65 43.71L128.65 36.75C128.65 36.32 128.61 35.84 128.52 35.31C128.43 34.77 128.22 34.27 127.89 33.79C127.63 33.39 127.32 33.09 126.98 32.86C126.63 32.64 126.27 32.48 125.89 32.37C125.51 32.26 125.13 32.19 124.74 32.16C124.36 32.13 124 32.11 123.67 32.11L120.19 32.11C119.65 32.11 119.06 32.17 118.43 32.28C117.79 32.4 117.22 32.69 116.71 33.15C116.4 33.44 116.16 33.77 115.98 34.13C115.81 34.5 115.68 34.87 115.59 35.26C115.5 35.64 115.44 36.02 115.43 36.39C115.41 36.76 115.4 37.1 115.4 37.39C115.4 38.12 115.45 38.82 115.55 39.51C115.65 40.2 115.94 40.83 116.41 41.39C116.66 41.68 116.93 41.92 117.22 42.09C117.5 42.26 117.79 42.39 118.07 42.47C118.35 42.56 118.61 42.61 118.85 42.63C119.08 42.66 119.28 42.67 119.43 42.67L125.4 42.67L125.4 44.13C125.4 44.41 125.37 44.76 125.31 45.18C125.25 45.6 125.08 45.95 124.8 46.22C124.52 46.5 124.2 46.67 123.84 46.72C123.48 46.77 123.16 46.79 122.88 46.79L116.19 46.79L116.19 49.38ZM125.4 40.08L121.4 40.08C121.28 40.08 121.14 40.08 120.97 40.07C120.79 40.06 120.61 40.04 120.42 39.99C120.24 39.95 120.05 39.9 119.87 39.83C119.69 39.77 119.53 39.68 119.4 39.56C119.17 39.33 119.01 39.02 118.91 38.62C118.81 38.23 118.76 37.84 118.76 37.47C118.76 36.86 118.83 36.38 118.97 36.05C119.11 35.71 119.27 35.46 119.45 35.29C119.61 35.13 119.83 34.99 120.1 34.87C120.38 34.76 120.73 34.7 121.18 34.7L123.18 34.7C123.6 34.7 123.95 34.76 124.22 34.89C124.5 35.01 124.71 35.15 124.85 35.29C125.12 35.56 125.27 35.86 125.32 36.19C125.37 36.53 125.4 36.8 125.4 37L125.4 40.08Z" fill="#FFFFFF" fill-opacity="1.000000" fill-rule="nonzero"/>
	<path id="Vector" d="M28.84 13.69L38.21 13.69C38.78 13.69 39.41 13.63 40.11 13.51C40.8 13.38 41.49 13.02 42.16 12.43C42.98 11.72 43.49 10.9 43.69 9.98C43.9 9.06 44 8.12 44 7.17C44 6.76 43.99 6.3 43.96 5.78C43.93 5.27 43.86 4.74 43.73 4.19C43.61 3.65 43.42 3.13 43.16 2.62C42.91 2.12 42.56 1.68 42.12 1.3C41.5 0.76 40.84 0.44 40.15 0.36C39.46 0.28 38.81 0.24 38.21 0.24L27.9 0.24C27.38 0.24 26.85 0.29 26.31 0.38C25.77 0.48 25.3 0.72 24.92 1.1C24.54 1.48 24.31 1.94 24.21 2.48C24.12 3.03 24.07 3.49 24.07 3.87L24.07 15.08L24.07 15.15L24.07 21.84L28.84 21.84L28.84 13.69ZM28.84 10.02L28.84 5.05C28.84 4.89 28.85 4.73 28.88 4.58C28.91 4.43 29 4.29 29.16 4.15C29.33 4.02 29.51 3.94 29.71 3.93C29.92 3.91 30.09 3.91 30.22 3.91L36.87 3.91C37.17 3.91 37.46 3.98 37.74 4.11C38.03 4.25 38.25 4.4 38.42 4.56C38.71 4.86 38.9 5.25 38.97 5.74C39.03 6.23 39.07 6.64 39.07 6.97C39.07 7.75 39 8.31 38.86 8.64C38.73 8.96 38.62 9.18 38.54 9.29C38.27 9.64 37.95 9.85 37.58 9.92C37.21 9.99 36.95 10.02 36.79 10.02L28.84 10.02Z" fill="#2B7AF1" fill-opacity="1.000000" fill-rule="nonzero"/>
</svg>
