<svg width="40.000000" height="40.000000" viewBox="0 0 40 40" fill="none" xmlns="http://www.w3.org/2000/svg" xmlns:xlink="http://www.w3.org/1999/xlink">
	<desc>
			Created with Pixso.
	</desc>
	<defs>
		<clipPath id="clip1_2651">
			<rect id="carbon:email" rx="0.000000" width="19.000000" height="19.000000" transform="translate(10.500000 10.500000)" fill="white" fill-opacity="0"/>
		</clipPath>
	</defs>
	<circle id="Ellipse 6" cx="20.000000" cy="20.000000" r="20.000000" fill="#FFFFFF" fill-opacity="1.000000"/>
	<rect id="carbon:email" rx="0.000000" width="19.000000" height="19.000000" transform="translate(10.500000 10.500000)" fill="#FFFFFF" fill-opacity="0"/>
	<g clip-path="url(#clip1_2651)">
		<path id="Vector" d="M28.4 13L11.59 13C11.43 13 11.28 13.06 11.17 13.16C11.06 13.27 11 13.42 11 13.57L11 14.73C11 14.78 11.06 14.84 11.1 14.87L19.94 19.72C19.96 19.74 19.99 19.74 20.01 19.74C20.04 19.74 20.06 19.74 20.09 19.72L28.65 14.87C28.7 14.85 28.83 14.78 28.88 14.75C28.93 14.71 29 14.67 29 14.61L29 13.57C29 13.42 28.93 13.27 28.82 13.16C28.71 13.06 28.56 13 28.4 13Z" fill="#2B7AF1" fill-opacity="1.000000" fill-rule="nonzero"/>
		<path id="Vector" d="M28.92 16.47C28.9 16.46 28.87 16.45 28.84 16.45C28.82 16.45 28.79 16.46 28.77 16.47L23.92 19.22C23.9 19.23 23.89 19.24 23.87 19.26C23.86 19.28 23.85 19.3 23.85 19.32C23.85 19.34 23.85 19.36 23.85 19.39C23.86 19.41 23.87 19.42 23.89 19.44L28.74 24.47C28.75 24.49 28.77 24.5 28.79 24.5C28.8 24.51 28.83 24.52 28.85 24.52C28.89 24.52 28.92 24.5 28.95 24.47C28.98 24.45 29 24.41 29 24.37L29 16.6C29 16.57 28.99 16.55 28.98 16.53C28.96 16.5 28.94 16.49 28.92 16.47Z" fill="#2B7AF1" fill-opacity="1.000000" fill-rule="nonzero"/>
		<path id="Vector" d="M22.53 20.14C22.5 20.12 22.47 20.1 22.44 20.1C22.4 20.09 22.37 20.1 22.34 20.11L20.4 21.21C20.28 21.28 20.15 21.31 20.02 21.31C19.89 21.31 19.76 21.28 19.65 21.22L17.94 20.28C17.91 20.26 17.88 20.26 17.85 20.26C17.81 20.26 17.79 20.28 17.76 20.3L11.27 26.1C11.25 26.11 11.24 26.13 11.23 26.15C11.22 26.17 11.22 26.19 11.22 26.22C11.22 26.24 11.23 26.26 11.25 26.28C11.26 26.3 11.27 26.31 11.29 26.33C11.4 26.38 11.49 26.41 11.59 26.41L28.23 26.41C28.25 26.41 28.28 26.4 28.31 26.39C28.33 26.37 28.35 26.35 28.36 26.32C28.37 26.3 28.38 26.27 28.37 26.24C28.37 26.21 28.35 26.19 28.33 26.17L22.53 20.14Z" fill="#2B7AF1" fill-opacity="1.000000" fill-rule="nonzero"/>
		<path id="Vector" d="M16.33 19.61C16.35 19.6 16.36 19.58 16.37 19.56C16.38 19.54 16.38 19.51 16.38 19.49C16.38 19.47 16.37 19.45 16.36 19.43C16.34 19.41 16.33 19.39 16.31 19.38L11.22 16.59C11.2 16.57 11.17 16.57 11.14 16.57C11.12 16.57 11.09 16.57 11.07 16.59C11.05 16.6 11.03 16.62 11.01 16.64C11 16.66 11 16.69 11 16.71L11 24.05C11 24.08 11 24.11 11.02 24.13C11.04 24.15 11.06 24.17 11.08 24.18C11.11 24.19 11.14 24.2 11.17 24.19C11.2 24.19 11.22 24.17 11.25 24.16L16.33 19.61Z" fill="#2B7AF1" fill-opacity="1.000000" fill-rule="nonzero"/>
	</g>
</svg>
