<svg width="40.000000" height="40.000000" viewBox="0 0 40 40" fill="none" xmlns="http://www.w3.org/2000/svg" xmlns:xlink="http://www.w3.org/1999/xlink">
	<desc>
			Created with Pixso.
	</desc>
	<defs>
		<clipPath id="clip1_2083">
			<rect id="carbon:email" rx="0.000000" width="19.000000" height="19.000000" transform="translate(10.500000 10.500000)" fill="white" fill-opacity="0"/>
		</clipPath>
	</defs>
	<circle id="Ellipse 6" cx="20.000000" cy="20.000000" r="20.000000" fill="#2B7AF1" fill-opacity="1.000000"/>
	<rect id="carbon:email" rx="0.000000" width="19.000000" height="19.000000" transform="translate(10.500000 10.500000)" fill="#FFFFFF" fill-opacity="0"/>
	<g clip-path="url(#clip1_2083)">
		<path id="Vector" d="M28.4 12.89L11.59 12.89C11.43 12.89 11.28 12.95 11.17 13.06C11.06 13.16 11 13.31 11 13.46L11 14.62C11 14.67 11.06 14.73 11.1 14.76L19.94 19.62C19.96 19.63 19.99 19.63 20.01 19.63C20.04 19.63 20.06 19.63 20.09 19.61L28.65 14.76C28.7 14.74 28.83 14.67 28.88 14.64C28.93 14.6 29 14.57 29 14.5L29 13.46C29 13.31 28.93 13.16 28.82 13.06C28.71 12.95 28.56 12.89 28.4 12.89Z" fill="#FFFFFF" fill-opacity="1.000000" fill-rule="nonzero"/>
		<path id="Vector" d="M28.92 16.37C28.9 16.35 28.87 16.35 28.84 16.35C28.82 16.35 28.79 16.35 28.77 16.37L23.92 19.11C23.9 19.12 23.89 19.14 23.87 19.15C23.86 19.17 23.85 19.19 23.85 19.21C23.85 19.24 23.85 19.26 23.85 19.28C23.86 19.3 23.87 19.32 23.89 19.33L28.74 24.36C28.75 24.38 28.77 24.39 28.79 24.4C28.8 24.41 28.83 24.41 28.85 24.41C28.89 24.41 28.92 24.39 28.95 24.37C28.98 24.34 29 24.3 29 24.27L29 16.49C29 16.46 28.99 16.44 28.98 16.42C28.96 16.4 28.94 16.38 28.92 16.37Z" fill="#FFFFFF" fill-opacity="1.000000" fill-rule="nonzero"/>
		<path id="Vector" d="M22.53 20.03C22.5 20.01 22.47 19.99 22.44 19.99C22.4 19.98 22.37 19.99 22.34 20.01L20.4 21.11C20.28 21.17 20.15 21.2 20.02 21.2C19.89 21.21 19.76 21.17 19.65 21.11L17.94 20.17C17.91 20.16 17.88 20.15 17.85 20.15C17.81 20.16 17.79 20.17 17.76 20.19L11.27 25.99C11.25 26 11.24 26.02 11.23 26.04C11.22 26.06 11.22 26.09 11.22 26.11C11.22 26.13 11.23 26.15 11.25 26.17C11.26 26.19 11.27 26.21 11.29 26.22C11.4 26.27 11.49 26.3 11.59 26.3L28.23 26.3C28.25 26.3 28.28 26.29 28.31 26.28C28.33 26.26 28.35 26.24 28.36 26.22C28.37 26.19 28.38 26.16 28.37 26.13C28.37 26.11 28.35 26.08 28.33 26.06L22.53 20.03Z" fill="#FFFFFF" fill-opacity="1.000000" fill-rule="nonzero"/>
		<path id="Vector" d="M16.33 19.51C16.35 19.49 16.36 19.47 16.37 19.45C16.38 19.43 16.38 19.41 16.38 19.38C16.38 19.36 16.37 19.34 16.36 19.32C16.34 19.3 16.33 19.29 16.31 19.27L11.22 16.48C11.2 16.47 11.17 16.46 11.14 16.46C11.12 16.46 11.09 16.47 11.07 16.48C11.05 16.49 11.03 16.51 11.01 16.53C11 16.55 11 16.58 11 16.6L11 23.94C11 23.97 11 24 11.02 24.02C11.04 24.04 11.06 24.06 11.08 24.07C11.11 24.09 11.14 24.09 11.17 24.08C11.2 24.08 11.22 24.07 11.25 24.05L16.33 19.51Z" fill="#FFFFFF" fill-opacity="1.000000" fill-rule="nonzero"/>
	</g>
</svg>
