<svg width="81.000000" height="80.000000" viewBox="0 0 81 80" fill="none" xmlns="http://www.w3.org/2000/svg" xmlns:xlink="http://www.w3.org/1999/xlink">
	<desc>
			Created with Pixso.
	</desc>
	<defs>
		<clipPath id="clip1_2528">
			<rect id="Безопасность" rx="0.000000" width="79.000000" height="79.000000" transform="translate(0.500000 0.500000)" fill="white" fill-opacity="0"/>
		</clipPath>
		<clipPath id="clip1_2538">
			<rect id="Документы" rx="0.000000" width="79.000000" height="79.000000" transform="translate(0.500000 0.500000)" fill="white" fill-opacity="0"/>
		</clipPath>
		<clipPath id="clip1_2548">
			<rect id="Время" rx="0.000000" width="79.000000" height="79.000000" transform="translate(0.500000 0.500000)" fill="white" fill-opacity="0"/>
		</clipPath>
		<clipPath id="clip1_2560">
			<rect id="Деньги" rx="0.000000" width="79.000000" height="79.000000" transform="translate(1.500000 0.500000)" fill="white" fill-opacity="0"/>
		</clipPath>
		<linearGradient x1="14.926752" y1="65.307617" x2="50.385654" y2="65.151367" id="paint_linear_1_2543_0" gradientUnits="userSpaceOnUse">
			<stop stop-color="#FF7A00"/>
			<stop offset="1.000000" stop-color="#FFB039"/>
		</linearGradient>
		<linearGradient x1="21.259764" y1="59.057617" x2="50.385548" y2="58.901367" id="paint_linear_1_2544_0" gradientUnits="userSpaceOnUse">
			<stop stop-color="#FF7A00"/>
			<stop offset="1.000000" stop-color="#FFB039"/>
		</linearGradient>
		<linearGradient x1="14.926758" y1="59.057858" x2="18.051760" y2="58.901608" id="paint_linear_1_2545_0" gradientUnits="userSpaceOnUse">
			<stop stop-color="#FF7A00"/>
			<stop offset="1.000000" stop-color="#FFB039"/>
		</linearGradient>
		<linearGradient x1="14.926754" y1="71.557678" x2="50.385815" y2="71.401428" id="paint_linear_1_2546_0" gradientUnits="userSpaceOnUse">
			<stop stop-color="#FF7A00"/>
			<stop offset="1.000000" stop-color="#FFB039"/>
		</linearGradient>
		<linearGradient x1="57.968750" y1="30.339111" x2="61.093750" y2="30.182861" id="paint_linear_1_2547_0" gradientUnits="userSpaceOnUse">
			<stop stop-color="#FF7A00"/>
			<stop offset="1.000000" stop-color="#FFB039"/>
		</linearGradient>
		<linearGradient x1="47.867676" y1="52.799492" x2="60.992657" y2="51.522671" id="paint_linear_1_2563_0" gradientUnits="userSpaceOnUse">
			<stop stop-color="#FF7A00"/>
			<stop offset="1.000000" stop-color="#FFB039"/>
		</linearGradient>
		<linearGradient x1="55.218750" y1="34.218945" x2="58.441589" y2="34.062687" id="paint_linear_1_2569_0" gradientUnits="userSpaceOnUse">
			<stop stop-color="#FF7A00"/>
			<stop offset="1.000000" stop-color="#FFB039"/>
		</linearGradient>
		<linearGradient x1="50.434082" y1="71.718666" x2="53.656593" y2="71.562401" id="paint_linear_1_2575_0" gradientUnits="userSpaceOnUse">
			<stop stop-color="#FF7A00"/>
			<stop offset="1.000000" stop-color="#FFB039"/>
		</linearGradient>
	</defs>
	<rect id="Деньги" rx="0.000000" width="79.000000" height="79.000000" transform="translate(1.500000 0.500000)" fill="#FFFFFF" fill-opacity="0"/>
	<g clip-path="url(#clip1_2560)">
		<path id="Vector" d="M54.43 51.3C52.53 51.3 50.99 49.97 50.99 48.33C50.99 46.68 52.53 45.35 54.43 45.35C56.32 45.35 57.86 46.68 57.86 48.33C57.86 49.19 58.56 49.89 59.43 49.89C60.29 49.89 60.99 49.19 60.99 48.33C60.99 45.46 58.85 43.05 55.99 42.4L55.99 41.59C55.99 40.73 55.29 40.03 54.43 40.03C53.56 40.03 52.86 40.73 52.86 41.59L52.86 42.4C50 43.05 47.86 45.46 47.86 48.33C47.86 51.69 50.81 54.43 54.43 54.43C56.32 54.43 57.86 55.76 57.86 57.4C57.86 59.04 56.32 60.38 54.43 60.38C52.53 60.38 50.99 59.04 50.99 57.4C50.99 56.54 50.29 55.84 49.43 55.84C48.56 55.84 47.86 56.54 47.86 57.4C47.86 60.26 50 62.67 52.86 63.33L52.86 64C52.86 64.86 53.56 65.56 54.43 65.56C55.29 65.56 55.99 64.86 55.99 64L55.99 63.33C58.85 62.67 60.99 60.26 60.99 57.4C60.99 54.04 58.04 51.3 54.43 51.3Z" fill="url(#paint_linear_1_2563_0)" fill-opacity="1.000000" fill-rule="nonzero"/>
		<path id="Vector" d="M71.54 42.01C69.5 38.83 66.62 36.28 63.22 34.65C62.45 34.27 61.51 34.6 61.14 35.38C60.76 36.16 61.09 37.09 61.87 37.46C67.79 40.31 71.62 46.4 71.62 52.96C71.62 55.77 70.93 58.56 69.62 61.02C69.21 61.79 69.5 62.73 70.26 63.14C70.5 63.26 70.75 63.32 71 63.32C71.55 63.32 72.09 63.02 72.38 62.49C73.93 59.58 74.75 56.28 74.75 52.96C74.75 49.06 73.64 45.27 71.54 42.01Z" fill="#2B7AF1" fill-opacity="1.000000" fill-rule="nonzero"/>
		<path id="Vector" d="M56.88 32.65L56.78 32.65C55.91 32.65 55.21 33.35 55.21 34.21C55.21 35.08 55.91 35.78 56.78 35.78L56.87 35.78C56.87 35.78 56.87 35.78 56.87 35.78C57.73 35.78 58.43 35.08 58.44 34.22C58.44 33.36 57.74 32.66 56.88 32.65Z" fill="url(#paint_linear_1_2569_0)" fill-opacity="1.000000" fill-rule="nonzero"/>
		<path id="Vector" d="M47 68.46C41.07 65.62 37.25 59.53 37.25 52.96C37.25 50.15 37.94 47.37 39.25 44.9C39.65 44.14 39.36 43.19 38.6 42.79C37.84 42.38 36.89 42.67 36.49 43.43C34.94 46.35 34.12 49.64 34.12 52.96C34.12 56.86 35.23 60.65 37.33 63.92C39.37 67.1 42.24 69.65 45.64 71.28C45.86 71.39 46.09 71.44 46.32 71.44C46.9 71.44 47.46 71.11 47.73 70.55C48.1 69.77 47.77 68.84 47 68.46Z" fill="#2B7AF1" fill-opacity="1.000000" fill-rule="nonzero"/>
		<path id="Vector" d="M52.09 70.15L52 70.15C51.13 70.15 50.43 70.84 50.43 71.71C50.43 72.57 51.12 73.27 51.98 73.28L52.09 73.28C52.95 73.28 53.65 72.58 53.65 71.71C53.65 70.85 52.95 70.15 52.09 70.15Z" fill="url(#paint_linear_1_2575_0)" fill-opacity="1.000000" fill-rule="nonzero"/>
		<path id="Vector" d="M61.53 27.37C61.34 26.91 61.1 26.48 60.83 26.09L64.9 26.09C68.86 26.09 72.09 22.86 72.09 18.9C72.09 14.94 68.86 11.71 64.9 11.71L52.39 11.71C53.18 10.56 53.65 9.16 53.65 7.65C53.65 3.69 50.43 0.46 46.46 0.46L8.18 0.46C4.22 0.46 1 3.69 1 7.65C1 11.61 4.22 14.84 8.18 14.84L20.7 14.84C19.9 16 19.43 17.39 19.43 18.9C19.43 20.41 19.9 21.81 20.7 22.96L16.62 22.96C12.66 22.96 9.43 26.19 9.43 30.15C9.43 32.43 10.5 34.46 12.15 35.78C10.5 37.09 9.43 39.13 9.43 41.4C9.43 43.68 10.5 45.71 12.15 47.03C10.5 48.34 9.43 50.38 9.43 52.65C9.43 54.93 10.5 56.96 12.15 58.28C10.5 59.59 9.43 61.63 9.43 63.9C9.43 67.86 12.66 71.09 16.62 71.09L35.03 71.09C39.89 76.28 46.79 79.53 54.43 79.53C69.08 79.53 81 67.61 81 52.96C81 40.77 72.74 30.48 61.53 27.37ZM64.9 14.84C67.14 14.84 68.96 16.66 68.96 18.9C68.96 21.14 67.14 22.96 64.9 22.96L54.9 22.96L26.62 22.96C24.38 22.96 22.56 21.14 22.56 18.9C22.56 16.66 24.38 14.84 26.62 14.84L64.9 14.84ZM8.18 11.71C5.94 11.71 4.12 9.89 4.12 7.65C4.12 5.41 5.94 3.59 8.18 3.59L46.46 3.59C48.7 3.59 50.53 5.41 50.53 7.65C50.53 9.89 48.7 11.71 46.46 11.71L8.18 11.71ZM16.62 26.09L54.9 26.09C55.53 26.09 56.13 26.24 56.67 26.5C55.93 26.43 55.19 26.4 54.43 26.4C47.1 26.4 40.45 29.39 35.64 34.21L16.62 34.21C14.38 34.21 12.56 32.39 12.56 30.15C12.56 27.91 14.38 26.09 16.62 26.09ZM16.62 37.34L32.97 37.34C31.19 39.77 29.82 42.51 28.95 45.46L16.62 45.46C14.38 45.46 12.56 43.64 12.56 41.4C12.56 39.16 14.38 37.34 16.62 37.34ZM16.62 48.59L28.23 48.59C28 50.01 27.87 51.47 27.87 52.96C27.87 54.24 27.96 55.49 28.14 56.71L16.62 56.71C14.38 56.71 12.56 54.89 12.56 52.65C12.56 50.41 14.38 48.59 16.62 48.59ZM16.62 67.96C14.38 67.96 12.56 66.14 12.56 63.9C12.56 61.66 14.38 59.84 16.62 59.84L28.77 59.84C29.56 62.78 30.84 65.52 32.52 67.96L16.62 67.96ZM54.43 76.4C41.51 76.4 31 65.89 31 52.96C31 40.04 41.51 29.53 54.43 29.53C67.36 29.53 77.87 40.04 77.87 52.96C77.87 65.89 67.36 76.4 54.43 76.4Z" fill="#2B7AF1" fill-opacity="1.000000" fill-rule="nonzero"/>
	</g>
</svg>
