<svg width="81.000000" height="80.000000" viewBox="0 0 81 80" fill="none" xmlns="http://www.w3.org/2000/svg" xmlns:xlink="http://www.w3.org/1999/xlink">
	<desc>
			Created with Pixso.
	</desc>
	<defs>
		<clipPath id="clip1_2583">
			<rect id="Безопасность" rx="0.000000" width="79.000000" height="79.000000" transform="translate(0.500000 0.500000)" fill="white" fill-opacity="0"/>
		</clipPath>
		<clipPath id="clip1_2593">
			<rect id="Документы" rx="0.000000" width="79.000000" height="79.000000" transform="translate(0.500000 0.500000)" fill="white" fill-opacity="0"/>
		</clipPath>
		<clipPath id="clip1_2603">
			<rect id="Время" rx="0.000000" width="79.000000" height="79.000000" transform="translate(0.500000 0.500000)" fill="white" fill-opacity="0"/>
		</clipPath>
		<clipPath id="clip1_2615">
			<rect id="Деньги" rx="0.000000" width="79.000000" height="79.000000" transform="translate(1.500000 0.500000)" fill="white" fill-opacity="0"/>
		</clipPath>
		<linearGradient x1="14.926754" y1="65.307617" x2="50.385658" y2="65.151367" id="paint_linear_1_2598_0" gradientUnits="userSpaceOnUse">
			<stop stop-color="#FF7A00"/>
			<stop offset="1.000000" stop-color="#FFB039"/>
		</linearGradient>
		<linearGradient x1="21.259762" y1="59.057617" x2="50.385544" y2="58.901367" id="paint_linear_1_2599_0" gradientUnits="userSpaceOnUse">
			<stop stop-color="#FF7A00"/>
			<stop offset="1.000000" stop-color="#FFB039"/>
		</linearGradient>
		<linearGradient x1="14.926758" y1="59.057861" x2="18.051760" y2="58.901611" id="paint_linear_1_2600_0" gradientUnits="userSpaceOnUse">
			<stop stop-color="#FF7A00"/>
			<stop offset="1.000000" stop-color="#FFB039"/>
		</linearGradient>
		<linearGradient x1="14.926758" y1="71.557617" x2="50.385818" y2="71.401367" id="paint_linear_1_2601_0" gradientUnits="userSpaceOnUse">
			<stop stop-color="#FF7A00"/>
			<stop offset="1.000000" stop-color="#FFB039"/>
		</linearGradient>
		<linearGradient x1="57.968750" y1="30.339111" x2="61.093750" y2="30.182861" id="paint_linear_1_2602_0" gradientUnits="userSpaceOnUse">
			<stop stop-color="#FF7A00"/>
			<stop offset="1.000000" stop-color="#FFB039"/>
		</linearGradient>
	</defs>
	<rect id="Документы" rx="0.000000" width="79.000000" height="79.000000" transform="translate(0.500000 0.500000)" fill="#FFFFFF" fill-opacity="0"/>
	<g clip-path="url(#clip1_2593)">
		<path id="XMLID 1729" d="M71.09 0L23.59 0C21 0 18.9 2.1 18.9 4.68L18.9 10.13C18.73 10.21 18.56 10.31 18.42 10.45L4.67 24.2C4.37 24.5 4.22 24.9 4.22 25.31C4.22 25.31 4.22 25.31 4.21 25.31L4.21 75.31C4.21 77.89 6.32 80 8.9 80L56.4 80C58.99 80 61.09 77.89 61.09 75.31L61.09 70L71.09 70C73.67 70 75.78 67.89 75.78 65.31L75.78 4.68C75.78 2.1 73.67 0 71.09 0ZM47.28 10L43.67 10C42.88 8.51 41.32 7.5 39.53 7.5C36.94 7.5 34.84 9.6 34.84 12.18L34.84 21.39C34.84 22.26 35.54 22.96 36.4 22.96C37.26 22.96 37.96 22.26 37.96 21.39L37.96 12.18C37.96 11.32 38.66 10.62 39.53 10.62C40.39 10.62 41.09 11.32 41.09 12.18L41.09 22.64C41.09 25.23 38.99 27.33 36.4 27.33C33.82 27.33 31.71 25.23 31.71 22.64L31.71 10.93C31.71 6.62 35.22 3.12 39.53 3.12C43.52 3.12 46.82 6.13 47.28 10ZM23.59 3.12L31.88 3.12C30.06 4.9 28.86 7.31 28.63 10L22.03 10L22.03 4.68C22.03 3.82 22.73 3.12 23.59 3.12ZM17.96 15.33L17.96 21.01C17.96 22.52 16.74 23.75 15.23 23.75L9.55 23.75L17.96 15.33ZM72.65 65.31C72.65 66.17 71.95 66.87 71.09 66.87L61.09 66.87L61.09 36.58C61.09 35.72 60.39 35.02 59.53 35.02C58.66 35.02 57.96 35.72 57.96 36.58L57.96 75.31C57.96 76.17 57.26 76.87 56.4 76.87L8.9 76.87C8.04 76.87 7.34 76.17 7.34 75.31L7.34 26.87L15.23 26.87C18.46 26.87 21.09 24.24 21.09 21.01L21.09 13.12L28.59 13.12L28.59 22.64C28.59 26.95 32.09 30.46 36.4 30.46C40.71 30.46 44.21 26.95 44.21 22.64L44.21 13.12L56.4 13.12C57.26 13.12 57.96 13.82 57.96 14.68L57.96 24.08C57.96 24.95 58.66 25.65 59.53 25.65C60.39 25.65 61.09 24.95 61.09 24.08L61.09 14.68C61.09 12.1 58.99 10 56.4 10L50.42 10C50.19 7.31 48.99 4.9 47.17 3.12L71.09 3.12C71.95 3.12 72.65 3.82 72.65 4.68L72.65 65.31Z" fill="#2B7AF1" fill-opacity="1.000000" fill-rule="nonzero"/>
		<path id="XMLID 1872" d="M16.57 53.04L48.73 53.04C49.6 53.04 50.3 52.34 50.3 51.48C50.3 50.62 49.6 49.92 48.73 49.92L46.88 49.92L46.88 43.81C46.88 42.95 46.18 42.25 45.32 42.25L39.38 42.25L39.38 38.64C39.38 37.78 38.68 37.08 37.82 37.08L31.88 37.08L31.88 34.49C31.88 33.63 31.18 32.93 30.32 32.93L22.82 32.93C21.95 32.93 21.25 33.63 21.25 34.49L21.25 49.92L18.13 49.92L18.13 34.49C18.13 33.63 17.43 32.93 16.57 32.93C15.7 32.93 15 33.63 15 34.49L15 51.48C15 52.34 15.7 53.04 16.57 53.04ZM43.75 45.38L43.75 49.92L39.38 49.92L39.38 45.38L43.75 45.38ZM36.25 40.2L36.25 43.81L36.25 49.92L31.88 49.92L31.88 40.2L36.25 40.2L36.25 40.2ZM24.38 36.05L28.75 36.05L28.75 38.64L28.75 49.92L24.38 49.92L24.38 36.05Z" fill="#2B7AF1" fill-opacity="1.000000" fill-rule="nonzero"/>
		<path id="XMLID 1875" d="M48.82 63.74L16.48 63.74C15.62 63.74 14.92 64.44 14.92 65.3C14.92 66.17 15.62 66.87 16.48 66.87L48.82 66.87C49.68 66.87 50.38 66.17 50.38 65.3C50.38 64.44 49.68 63.74 48.82 63.74Z" fill="url(#paint_linear_1_2598_0)" fill-opacity="1.000000" fill-rule="nonzero"/>
		<path id="XMLID 1876" d="M48.82 57.49L22.82 57.49C21.95 57.49 21.25 58.19 21.25 59.05C21.25 59.92 21.95 60.62 22.82 60.62L48.82 60.62C49.68 60.62 50.38 59.92 50.38 59.05C50.38 58.19 49.68 57.49 48.82 57.49Z" fill="url(#paint_linear_1_2599_0)" fill-opacity="1.000000" fill-rule="nonzero"/>
		<path id="XMLID 1877" d="M16.48 60.62C16.9 60.62 17.3 60.45 17.59 60.16C17.88 59.87 18.05 59.46 18.05 59.05C18.05 58.64 17.88 58.24 17.59 57.95C17.3 57.66 16.9 57.49 16.48 57.49C16.07 57.49 15.67 57.66 15.38 57.95C15.09 58.24 14.92 58.64 14.92 59.05C14.92 59.46 15.09 59.87 15.38 60.16C15.67 60.45 16.07 60.62 16.48 60.62Z" fill="url(#paint_linear_1_2600_0)" fill-opacity="1.000000" fill-rule="nonzero"/>
		<path id="XMLID 1878" d="M48.82 69.99L16.48 69.99C15.62 69.99 14.92 70.69 14.92 71.55C14.92 72.42 15.62 73.12 16.48 73.12L48.82 73.12C49.68 73.12 50.38 72.42 50.38 71.55C50.38 70.69 49.68 69.99 48.82 69.99Z" fill="url(#paint_linear_1_2601_0)" fill-opacity="1.000000" fill-rule="nonzero"/>
		<path id="XMLID 1879" d="M59.53 28.77C59.12 28.77 58.71 28.94 58.42 29.23C58.13 29.52 57.96 29.92 57.96 30.33C57.96 30.75 58.13 31.15 58.42 31.44C58.71 31.73 59.12 31.9 59.53 31.9C59.94 31.9 60.34 31.73 60.63 31.44C60.92 31.15 61.09 30.75 61.09 30.33C61.09 29.92 60.92 29.52 60.63 29.23C60.34 28.94 59.94 28.77 59.53 28.77Z" fill="url(#paint_linear_1_2602_0)" fill-opacity="1.000000" fill-rule="nonzero"/>
	</g>
</svg>
