<svg width="200.000000" height="197.225586" viewBox="0 0 200 197.226" fill="none" xmlns="http://www.w3.org/2000/svg" xmlns:xlink="http://www.w3.org/1999/xlink">
	<desc>
			Created with Pixso.
	</desc>
	<defs>
		<linearGradient x1="200.000031" y1="98.612900" x2="0.000029" y2="108.474136" id="paint_linear_1_4489_0" gradientUnits="userSpaceOnUse">
			<stop stop-color="#FF7A00"/>
			<stop offset="1.000000" stop-color="#FFB039"/>
		</linearGradient>
	</defs>
	<g opacity="0.800000">
		<path id="“" d="M0 166.42C29.95 149.31 44.93 129.2 44.93 106.1C32.16 104.38 21.6 98.32 13.25 87.91C4.91 77.5 0.73 65.45 0.73 51.76C0.73 37.22 4.78 24.95 12.89 14.97C20.99 4.99 31.18 0 43.45 0C57.2 0 69.11 6.48 79.18 19.46C89.25 32.44 94.28 48.2 94.28 66.74C94.28 122.35 67.52 165.85 13.99 197.22L0 166.42ZM105.71 166.42C135.91 149.31 151.01 129.2 151.01 106.1C138 104.38 127.32 98.32 118.97 87.91C110.62 77.5 106.45 65.45 106.45 51.76C106.45 37.22 110.56 24.95 118.78 14.97C127.01 4.99 137.26 0 149.54 0C163.29 0 175.13 6.48 185.08 19.46C195.02 32.44 200 48.2 200 66.74C200 122.35 173.36 165.85 120.07 197.22L105.71 166.42Z" fill="url(#paint_linear_1_4489_0)" fill-opacity="1.000000" fill-rule="evenodd"/>
	</g>
</svg>
