<svg width="40.000000" height="40.000000" viewBox="0 0 40 40" fill="none" xmlns="http://www.w3.org/2000/svg" xmlns:xlink="http://www.w3.org/1999/xlink">
	<desc>
			Created with Pixso.
	</desc>
	<defs>
		<clipPath id="clip1_2076">
			<rect id="Location" rx="0.000000" width="19.000000" height="19.000000" transform="translate(10.500000 10.392334)" fill="white" fill-opacity="0"/>
		</clipPath>
	</defs>
	<circle id="Ellipse 7" cx="20.000000" cy="20.000000" r="20.000000" fill="#2B7AF1" fill-opacity="1.000000"/>
	<rect id="Location" rx="0.000000" width="19.000000" height="19.000000" transform="translate(10.500000 10.392334)" fill="#FFFFFF" fill-opacity="0"/>
	<g clip-path="url(#clip1_2076)">
		<path id="Vector" d="M20 11.14C18.17 11.14 16.42 11.86 15.14 13.15C13.85 14.44 13.12 16.19 13.12 18.01C13.12 19.5 13.6 20.95 14.5 22.14C14.5 22.14 14.69 22.38 14.72 22.42L20 28.64L25.27 22.42C25.3 22.38 25.49 22.14 25.49 22.14L25.49 22.14C26.39 20.95 26.87 19.5 26.87 18.01C26.87 16.19 26.14 14.44 24.85 13.15C23.57 11.86 21.82 11.14 20 11.14ZM22.25 21.14L20 19.71L17.75 21.14L18.12 18.59L16.25 16.87L18.87 16.55L20 14.26L21.19 16.55L23.75 16.87L21.87 18.59L22.25 21.14Z" fill="#FFFFFF" fill-opacity="1.000000" fill-rule="nonzero"/>
	</g>
</svg>
