<svg width="40.000000" height="40.000000" viewBox="0 0 40 40" fill="none" xmlns="http://www.w3.org/2000/svg" xmlns:xlink="http://www.w3.org/1999/xlink">
	<desc>
			Created with Pixso.
	</desc>
	<defs>
		<clipPath id="clip1_2661">
			<rect id="Phone_Icon" rx="0.000000" width="19.000000" height="19.000000" transform="translate(10.500000 10.500000)" fill="white" fill-opacity="0"/>
		</clipPath>
	</defs>
	<circle id="Ellipse 7" cx="20.000000" cy="20.000000" r="20.000000" fill="#FFFFFF" fill-opacity="1.000000"/>
	<rect id="Phone_Icon" rx="0.000000" width="19.000000" height="19.000000" transform="translate(10.500000 10.500000)" fill="#FFFFFF" fill-opacity="0"/>
	<g clip-path="url(#clip1_2661)">
		<path id="Vector" d="M22.83 23.55L24.23 22.15C24.42 21.96 24.66 21.83 24.92 21.78C25.18 21.72 25.45 21.75 25.7 21.85L27.4 22.53C27.65 22.63 27.87 22.8 28.02 23.02C28.17 23.25 28.25 23.51 28.25 23.78L28.25 26.9C28.25 27.08 28.21 27.27 28.14 27.43C28.07 27.6 27.96 27.75 27.83 27.88C27.69 28 27.54 28.1 27.37 28.16C27.19 28.23 27.01 28.25 26.83 28.25C14.87 27.5 12.46 17.38 12 13.5C11.98 13.31 12 13.12 12.06 12.94C12.12 12.75 12.22 12.59 12.34 12.44C12.47 12.3 12.63 12.19 12.8 12.11C12.98 12.03 13.17 11.99 13.36 12L16.38 12C16.65 12 16.91 12.08 17.13 12.23C17.36 12.38 17.53 12.59 17.63 12.85L18.31 14.55C18.41 14.8 18.44 15.07 18.38 15.33C18.33 15.59 18.2 15.83 18.02 16.01L16.62 17.41C16.62 17.41 17.42 22.87 22.83 23.55Z" fill="#2B7AF1" fill-opacity="1.000000" fill-rule="nonzero"/>
	</g>
</svg>
