<svg width="40.000000" height="40.000000" viewBox="0 0 40 40" fill="none" xmlns="http://www.w3.org/2000/svg" xmlns:xlink="http://www.w3.org/1999/xlink">
	<desc>
			Created with Pixso.
	</desc>
	<defs>
		<clipPath id="clip1_2094">
			<rect id="Phone_Icon" rx="0.000000" width="19.000000" height="19.000000" transform="translate(10.500000 10.500000)" fill="white" fill-opacity="0"/>
		</clipPath>
	</defs>
	<circle id="Ellipse 7" cx="20.000000" cy="20.000000" r="20.000000" fill="#2B7AF1" fill-opacity="1.000000"/>
	<rect id="Phone_Icon" rx="0.000000" width="19.000000" height="19.000000" transform="translate(10.500000 10.500000)" fill="#FFFFFF" fill-opacity="0"/>
	<g clip-path="url(#clip1_2094)">
		<path id="Vector" d="M22.7 23.31L24.1 21.91C24.29 21.73 24.53 21.6 24.79 21.55C25.05 21.49 25.32 21.52 25.56 21.61L27.27 22.29C27.52 22.39 27.73 22.57 27.88 22.79C28.04 23.01 28.12 23.27 28.12 23.54L28.12 26.67C28.12 26.85 28.08 27.03 28.01 27.2C27.93 27.37 27.83 27.52 27.69 27.64C27.56 27.77 27.4 27.87 27.23 27.93C27.06 27.99 26.88 28.02 26.7 28.01C14.74 27.27 12.33 17.14 11.87 13.27C11.85 13.08 11.87 12.89 11.93 12.7C11.99 12.52 12.08 12.35 12.21 12.21C12.34 12.07 12.5 11.96 12.67 11.88C12.85 11.8 13.04 11.76 13.23 11.76L16.25 11.76C16.51 11.76 16.78 11.84 17 12C17.22 12.15 17.4 12.36 17.5 12.61L18.18 14.32C18.28 14.56 18.3 14.83 18.25 15.09C18.2 15.35 18.07 15.59 17.88 15.78L16.48 17.18C16.48 17.18 17.29 22.64 22.7 23.31Z" fill="#FFFFFF" fill-opacity="1.000000" fill-rule="nonzero"/>
	</g>
</svg>
