<svg width="120.000000" height="20.000000" viewBox="0 0 120 20" fill="none" xmlns="http://www.w3.org/2000/svg" xmlns:xlink="http://www.w3.org/1999/xlink">
	<desc>
			Created with Pixso.
	</desc>
	<defs/>
	<path id="Star 1" d="M10 0L7.75 6.9L0.48 6.9L6.36 11.18L4.12 18.09L10 13.82L15.87 18.09L13.63 11.18L19.51 6.9L12.24 6.9L10 0Z" fill="#FCC226" fill-opacity="1.000000" fill-rule="nonzero"/>
	<path id="Star 2" d="M35 0L32.75 6.9L25.48 6.9L31.36 11.18L29.12 18.09L35 13.82L40.87 18.09L38.63 11.18L44.51 6.9L37.24 6.9L35 0Z" fill="#FCC226" fill-opacity="1.000000" fill-rule="nonzero"/>
	<path id="Star 3" d="M60 0L57.75 6.9L50.48 6.9L56.36 11.18L54.12 18.09L60 13.82L65.87 18.09L63.63 11.18L69.51 6.9L62.24 6.9L60 0Z" fill="#FCC226" fill-opacity="1.000000" fill-rule="nonzero"/>
	<path id="Star 4" d="M85 0L82.75 6.9L75.48 6.9L81.36 11.18L79.12 18.09L85 13.82L90.87 18.09L88.63 11.18L94.51 6.9L87.24 6.9L85 0Z" fill="#FCC226" fill-opacity="1.000000" fill-rule="nonzero"/>
	<path id="Star 5" d="M110 0L107.75 6.9L100.48 6.9L106.36 11.18L104.12 18.09L110 13.82L115.87 18.09L113.63 11.18L119.51 6.9L112.24 6.9L110 0Z" fill="#FCC226" fill-opacity="1.000000" fill-rule="nonzero"/>
</svg>
