<svg width="196.000000" height="88.000000" viewBox="0 0 196 88" fill="none" xmlns="http://www.w3.org/2000/svg" xmlns:xlink="http://www.w3.org/1999/xlink">
	<desc>
			Created with Pixso.
	</desc>
	<defs>
		<clipPath id="clip1_2216">
			<rect id="deal 1" rx="0.000000" width="87.000000" height="87.000000" transform="translate(0.500000 0.500000)" fill="white" fill-opacity="0"/>
		</clipPath>
		<clipPath id="clip1_2226">
			<rect id="apartment 1" rx="0.000000" width="87.000000" height="87.000000" transform="translate(108.500000 0.500000)" fill="white" fill-opacity="0"/>
		</clipPath>
		<clipPath id="clip1_2235">
			<rect id="home 1" rx="0.000000" width="79.000000" height="79.000000" transform="translate(108.500000 4.500000)" fill="white" fill-opacity="0"/>
		</clipPath>
		<clipPath id="clip1_2244">
			<rect id="review 2" rx="0.000000" width="79.000000" height="79.000000" transform="translate(0.500000 0.500000)" fill="white" fill-opacity="0"/>
		</clipPath>
		<linearGradient x1="4.687011" y1="67.066162" x2="7.267150" y2="66.937256" id="paint_linear_1_2217_0" gradientUnits="userSpaceOnUse">
			<stop stop-color="#FF7A00"/>
			<stop offset="1.000000" stop-color="#FFB039"/>
		</linearGradient>
		<linearGradient x1="80.732910" y1="67.066162" x2="83.311035" y2="66.937256" id="paint_linear_1_2219_0" gradientUnits="userSpaceOnUse">
			<stop stop-color="#FF7A00"/>
			<stop offset="1.000000" stop-color="#FFB039"/>
		</linearGradient>
		<linearGradient x1="36.977539" y1="23.983549" x2="39.555664" y2="23.785122" id="paint_linear_1_2221_0" gradientUnits="userSpaceOnUse">
			<stop stop-color="#FF7A00"/>
			<stop offset="1.000000" stop-color="#FFB039"/>
		</linearGradient>
		<linearGradient x1="48.444336" y1="23.983549" x2="51.022461" y2="23.785122" id="paint_linear_1_2222_0" gradientUnits="userSpaceOnUse">
			<stop stop-color="#FF7A00"/>
			<stop offset="1.000000" stop-color="#FFB039"/>
		</linearGradient>
		<linearGradient x1="38.422852" y1="31.113949" x2="49.577267" y2="30.793495" id="paint_linear_1_2223_0" gradientUnits="userSpaceOnUse">
			<stop stop-color="#FF7A00"/>
			<stop offset="1.000000" stop-color="#FFB039"/>
		</linearGradient>
		<linearGradient x1="11.428223" y1="16.594992" x2="27.163847" y2="15.835691" id="paint_linear_1_2225_0" gradientUnits="userSpaceOnUse">
			<stop stop-color="#FF7A00"/>
			<stop offset="1.000000" stop-color="#FFB039"/>
		</linearGradient>
		<linearGradient x1="38.745117" y1="66.201508" x2="42.023914" y2="66.037727" id="paint_linear_1_2250_0" gradientUnits="userSpaceOnUse">
			<stop stop-color="#FF7A00"/>
			<stop offset="1.000000" stop-color="#FFB039"/>
		</linearGradient>
		<linearGradient x1="40.074219" y1="8.990307" x2="43.238876" y2="8.832000" id="paint_linear_1_2253_0" gradientUnits="userSpaceOnUse">
			<stop stop-color="#FF7A00"/>
			<stop offset="1.000000" stop-color="#FFB039"/>
		</linearGradient>
		<linearGradient x1="15.220703" y1="20.403742" x2="18.345085" y2="20.247524" id="paint_linear_1_2256_0" gradientUnits="userSpaceOnUse">
			<stop stop-color="#FF7A00"/>
			<stop offset="1.000000" stop-color="#FFB039"/>
		</linearGradient>
		<linearGradient x1="31.020996" y1="20.403742" x2="34.145370" y2="20.247524" id="paint_linear_1_2259_0" gradientUnits="userSpaceOnUse">
			<stop stop-color="#FF7A00"/>
			<stop offset="1.000000" stop-color="#FFB039"/>
		</linearGradient>
		<linearGradient x1="46.852539" y1="46.033382" x2="49.976921" y2="45.877163" id="paint_linear_1_2265_0" gradientUnits="userSpaceOnUse">
			<stop stop-color="#FF7A00"/>
			<stop offset="1.000000" stop-color="#FFB039"/>
		</linearGradient>
		<linearGradient x1="62.125977" y1="46.033627" x2="65.250359" y2="45.877407" id="paint_linear_1_2268_0" gradientUnits="userSpaceOnUse">
			<stop stop-color="#FF7A00"/>
			<stop offset="1.000000" stop-color="#FFB039"/>
		</linearGradient>
	</defs>
	<rect id="review 2" rx="0.000000" width="79.000000" height="79.000000" transform="translate(0.500000 0.500000)" fill="#FFFFFF" fill-opacity="0"/>
	<g clip-path="url(#clip1_2244)">
		<path id="Vector" d="M56.05 26.26C53.71 26.26 51.43 26.59 49.23 27.25C49.32 26.4 49.36 25.55 49.36 24.69C49.36 20.73 48.45 16.95 46.66 13.46C46.27 12.69 45.33 12.38 44.56 12.78C43.79 13.17 43.49 14.11 43.88 14.88C45.44 17.93 46.24 21.23 46.24 24.69C46.24 36.57 36.57 46.24 24.68 46.24C21.91 46.24 19.21 45.72 16.66 44.7C16.08 44.47 15.41 44.6 14.97 45.05L11.56 48.46L11.56 42.54C11.56 42.08 11.35 41.64 10.99 41.34C5.99 37.22 3.12 31.15 3.12 24.69C3.12 12.8 12.79 3.13 24.68 3.13C27.55 3.13 30.33 3.68 32.96 4.77C33.8 5.13 34.64 5.54 35.43 6C36.18 6.43 37.14 6.17 37.57 5.42C38 4.68 37.74 3.72 37 3.29C36.08 2.77 35.13 2.29 34.16 1.89C31.15 0.64 27.96 0 24.68 0C11.07 0 0 11.08 0 24.69C0 31.84 3.06 38.57 8.43 43.27L8.43 52.23C8.43 52.86 8.81 53.43 9.4 53.68C9.59 53.76 9.79 53.79 9.99 53.79C10.4 53.79 10.8 53.64 11.1 53.34L16.47 47.97C19.1 48.9 21.86 49.37 24.68 49.37C27.29 49.37 29.82 48.96 32.18 48.2C32.13 48.87 32.1 49.54 32.1 50.21C32.1 53.86 32.9 57.38 34.49 60.64C34.76 61.2 35.31 61.52 35.89 61.52C36.12 61.52 36.35 61.47 36.57 61.37C37.35 60.99 37.67 60.06 37.3 59.28C35.92 56.44 35.22 53.39 35.22 50.21C35.22 49.09 35.31 47.97 35.49 46.87C41.93 43.72 46.81 37.84 48.6 30.75C50.98 29.85 53.48 29.38 56.05 29.38C67.53 29.38 76.87 38.72 76.87 50.21C76.87 56.59 74 62.53 69.01 66.51C68.63 66.8 68.42 67.25 68.42 67.73L68.42 74.65L64.14 70.37C63.72 69.96 63.11 69.81 62.55 70C60.45 70.68 58.27 71.03 56.05 71.03C52.87 71.03 49.82 70.34 46.99 68.96C46.21 68.59 45.28 68.91 44.9 69.69C44.53 70.47 44.85 71.4 45.63 71.78C48.89 73.35 52.4 74.16 56.05 74.16C58.27 74.16 60.47 73.85 62.59 73.25L68.88 79.53C69.17 79.83 69.57 79.99 69.98 79.99C70.18 79.99 70.38 79.95 70.58 79.87C71.16 79.63 71.54 79.06 71.54 78.43L71.54 68.47C76.92 63.9 80 57.29 80 50.21C80 37 69.25 26.26 56.05 26.26Z" fill="#2B7AF1" fill-opacity="1.000000" fill-rule="nonzero"/>
		<path id="Vector" d="M41.54 65.15C41.5 65.1 41.45 65.06 41.4 65.01C40.79 64.4 39.8 64.41 39.19 65.02C38.59 65.63 38.59 66.62 39.2 67.23C39.26 67.29 39.31 67.34 39.37 67.39C39.67 67.69 40.06 67.83 40.46 67.83C40.86 67.83 41.27 67.68 41.58 67.36C42.18 66.74 42.16 65.75 41.54 65.15Z" fill="url(#paint_linear_1_2250_0)" fill-opacity="1.000000" fill-rule="nonzero"/>
		<path id="Vector" d="M42.79 7.92C42.11 7.19 41.13 7.3 40.57 7.82C40.01 8.34 39.83 9.32 40.5 10.05C40.51 10.05 40.51 10.06 40.52 10.06C40.86 10.42 41.27 10.57 41.66 10.57C42.07 10.57 42.46 10.41 42.74 10.14C43.3 9.62 43.47 8.64 42.79 7.92Z" fill="url(#paint_linear_1_2253_0)" fill-opacity="1.000000" fill-rule="nonzero"/>
		<path id="Vector" d="M17.88 19.29C17.59 19 17.19 18.84 16.78 18.84C16.37 18.84 15.96 19 15.67 19.29C15.38 19.58 15.22 19.99 15.22 20.4C15.22 20.81 15.38 21.21 15.67 21.5C15.96 21.79 16.37 21.96 16.78 21.96C17.19 21.96 17.59 21.79 17.88 21.5C18.17 21.21 18.34 20.81 18.34 20.4C18.34 19.99 18.17 19.58 17.88 19.29Z" fill="url(#paint_linear_1_2256_0)" fill-opacity="1.000000" fill-rule="nonzero"/>
		<path id="Vector" d="M33.68 19.29C33.39 19 32.99 18.84 32.58 18.84C32.17 18.84 31.76 19 31.47 19.29C31.18 19.58 31.02 19.99 31.02 20.4C31.02 20.81 31.18 21.21 31.47 21.5C31.76 21.79 32.17 21.96 32.58 21.96C32.99 21.96 33.39 21.79 33.68 21.5C33.97 21.21 34.14 20.81 34.14 20.4C34.14 19.99 33.97 19.58 33.68 19.29Z" fill="url(#paint_linear_1_2259_0)" fill-opacity="1.000000" fill-rule="nonzero"/>
		<path id="Vector" d="M30.66 28.52C29.83 28.3 28.97 28.8 28.75 29.63C28.26 31.47 26.58 32.76 24.68 32.76C22.77 32.76 21.1 31.47 20.61 29.63C20.39 28.8 19.53 28.3 18.7 28.52C17.86 28.75 17.37 29.6 17.59 30.44C18.45 33.64 21.36 35.88 24.68 35.88C27.99 35.88 30.91 33.64 31.77 30.44C31.99 29.6 31.49 28.75 30.66 28.52Z" fill="#2B7AF1" fill-opacity="1.000000" fill-rule="nonzero"/>
		<path id="Vector" d="M49.51 44.92C49.22 44.63 48.82 44.47 48.41 44.47C48 44.47 47.6 44.63 47.31 44.92C47.01 45.21 46.85 45.62 46.85 46.03C46.85 46.44 47.01 46.84 47.31 47.13C47.6 47.42 48 47.59 48.41 47.59C48.82 47.59 49.22 47.42 49.51 47.13C49.81 46.84 49.97 46.44 49.97 46.03C49.97 45.62 49.81 45.21 49.51 44.92Z" fill="url(#paint_linear_1_2265_0)" fill-opacity="1.000000" fill-rule="nonzero"/>
		<path id="Vector" d="M64.79 44.92C64.5 44.63 64.1 44.47 63.68 44.47C63.27 44.47 62.87 44.63 62.58 44.92C62.29 45.21 62.12 45.62 62.12 46.03C62.12 46.44 62.29 46.84 62.58 47.13C62.87 47.42 63.27 47.59 63.68 47.59C64.1 47.59 64.5 47.42 64.79 47.13C65.08 46.84 65.25 46.44 65.25 46.03C65.25 45.62 65.08 45.21 64.79 44.92Z" fill="url(#paint_linear_1_2268_0)" fill-opacity="1.000000" fill-rule="nonzero"/>
		<path id="Vector" d="M49.14 55.75C49.98 58.87 52.82 61.05 56.05 61.05C59.28 61.05 62.11 58.87 62.95 55.75C63.17 54.91 62.68 54.06 61.84 53.83C61.01 53.61 60.15 54.11 59.93 54.94C59.46 56.7 57.86 57.92 56.05 57.92C54.23 57.92 52.63 56.7 52.16 54.94C51.98 54.24 51.35 53.78 50.65 53.78C50.52 53.78 50.39 53.8 50.25 53.83C49.42 54.06 48.92 54.91 49.14 55.75Z" fill="#2B7AF1" fill-opacity="1.000000" fill-rule="nonzero"/>
	</g>
	<path id="100+" d="M122.18 34.5Q124.32 35.5 126.92 35.5Q129.35 35.5 131.39 34.6Q132.04 34.32 132.64 33.95Q133.1 33.67 133.53 33.34Q135.42 31.86 136.58 29.43Q138.01 26.46 138.01 22.39Q138.01 18.33 136.58 15.36Q135.42 12.93 133.53 11.45Q133.1 11.12 132.64 10.84Q132.02 10.46 131.35 10.17Q129.33 9.29 126.92 9.29Q124.35 9.29 122.22 10.27Q121.68 10.52 121.16 10.84Q120.74 11.1 120.35 11.4Q118.41 12.89 117.22 15.36Q115.8 18.33 115.8 22.39Q115.8 26.46 117.22 29.43Q118.41 31.91 120.35 33.39Q120.74 33.69 121.16 33.95Q121.66 34.25 122.18 34.5ZM146.84 34.5Q148.98 35.5 151.58 35.5Q154.01 35.5 156.05 34.6Q156.7 34.32 157.31 33.95Q157.76 33.67 158.19 33.34Q160.09 31.86 161.24 29.43Q162.67 26.46 162.67 22.39Q162.67 18.33 161.24 15.36Q160.09 12.93 158.19 11.45Q157.76 11.12 157.31 10.84Q156.68 10.46 156.01 10.17Q153.99 9.29 151.58 9.29Q149 9.29 146.88 10.27Q146.34 10.52 145.82 10.84Q145.4 11.1 145.01 11.4Q143.07 12.89 141.88 15.36Q140.46 18.33 140.46 22.39Q140.46 26.46 141.88 29.43Q143.07 31.91 145.01 33.39Q145.4 33.69 145.82 33.95Q146.32 34.25 146.84 34.5ZM112.02 35L112.02 9.8L100.22 9.8L100.22 15.3L104.89 15.3L104.89 35L112.02 35ZM177.72 25.02L183.8 25.02L183.8 19.76L177.72 19.76L177.72 13.83L172.18 13.83L172.18 19.76L166.06 19.76L166.06 25.02L172.18 25.02L172.18 30.96L177.72 30.96L177.72 25.02ZM128.16 29.43Q127.59 29.67 126.92 29.67Q126.21 29.67 125.61 29.4Q124.67 28.99 124.02 27.92Q122.96 26.17 122.96 22.39Q122.96 18.61 124.02 16.87Q124.67 15.8 125.61 15.39Q126.21 15.12 126.92 15.12Q127.59 15.12 128.16 15.37Q129.12 15.77 129.78 16.87Q130.84 18.61 130.84 22.39Q130.84 26.17 129.78 27.92Q129.12 29.02 128.16 29.43ZM152.82 29.43Q152.25 29.67 151.58 29.67Q150.87 29.67 150.27 29.4Q149.33 28.99 148.68 27.92Q147.62 26.17 147.62 22.39Q147.62 18.61 148.68 16.87Q149.33 15.8 150.27 15.39Q150.87 15.12 151.58 15.12Q152.25 15.12 152.82 15.37Q153.78 15.77 154.44 16.87Q155.5 18.61 155.5 22.39Q155.5 26.17 154.44 27.92Q153.78 29.02 152.82 29.43Z" fill="#2B7AF1" fill-opacity="1.000000" fill-rule="evenodd"/>
	<path id="Отзывов" d="M109.78 73.3C108.89 73.87 107.8 74.16 106.5 74.16Q104.57 74.16 103.24 73.3Q102.78 73.01 102.4 72.65Q101.67 71.93 101.22 70.93Q100.54 69.4 100.54 67.41Q100.54 65.41 101.22 63.89C101.68 62.88 102.35 62.08 103.24 61.51Q104.57 60.66 106.5 60.66Q108.45 60.66 109.78 61.51C110.67 62.08 111.34 62.88 111.79 63.89Q112.48 65.41 112.48 67.41Q112.48 69.4 111.79 70.93Q111.34 71.93 110.61 72.65Q110.23 73.01 109.78 73.3ZM103.96 72.19C104.64 72.65 105.49 72.88 106.5 72.89Q108.02 72.89 109.04 72.2Q109.31 72.01 109.55 71.79Q110.19 71.18 110.56 70.27Q111.07 69.03 111.07 67.41Q111.07 65.79 110.56 64.56C110.23 63.73 109.72 63.09 109.04 62.63C108.36 62.17 107.52 61.93 106.5 61.93C105.49 61.92 104.65 62.15 103.97 62.62Q103.74 62.78 103.54 62.97Q102.85 63.6 102.46 64.56Q101.96 65.79 101.94 67.41C101.93 68.49 102.1 69.44 102.43 70.26Q102.8 71.17 103.45 71.78Q103.69 72 103.96 72.19ZM128.75 73.8C128.2 74.04 127.59 74.16 126.9 74.16C125.93 74.16 125.07 73.95 124.34 73.52Q123.91 73.27 123.55 72.93Q123 72.42 122.62 71.73L123.68 71.05Q124.27 72.05 125.14 72.5Q125.88 72.89 126.82 72.89Q127.89 72.89 128.54 72.4C128.97 72.07 129.19 71.61 129.19 71.04Q129.19 70.4 128.88 70.04Q128.75 69.9 128.57 69.79Q127.95 69.43 126.71 69.43L125.55 69.43L125.55 68.3L126.69 68.3C127.37 68.3 127.91 68.18 128.32 67.94C128.73 67.7 128.93 67.32 128.93 66.79C128.93 66.24 128.72 65.83 128.31 65.56C127.9 65.29 127.41 65.16 126.84 65.16C126.27 65.16 125.72 65.28 125.21 65.52C124.7 65.75 124.27 66.06 123.92 66.43L123.07 65.54C123.56 65 124.12 64.6 124.77 64.32C125.43 64.04 126.15 63.9 126.94 63.9C127.56 63.9 128.13 64.01 128.63 64.23C129.14 64.45 129.54 64.78 129.84 65.19C130.14 65.61 130.29 66.11 130.29 66.7C130.29 67.15 130.2 67.56 130.02 67.91C129.84 68.26 129.58 68.56 129.25 68.81C129.69 69.03 130.02 69.36 130.23 69.8C130.44 70.24 130.54 70.69 130.54 71.16C130.54 71.78 130.38 72.31 130.05 72.76C129.74 73.21 129.3 73.55 128.75 73.8ZM160.74 73.51C160.06 73.94 159.24 74.16 158.28 74.16C157.31 74.16 156.48 73.94 155.79 73.5C155.11 73.06 154.58 72.46 154.22 71.68C153.86 70.91 153.68 70.02 153.68 69.02C153.68 68 153.86 67.11 154.24 66.34Q154.62 65.55 155.22 65Q155.5 64.75 155.82 64.55C156.51 64.12 157.33 63.9 158.28 63.9C159.25 63.9 160.08 64.12 160.76 64.56C161.45 64.99 161.98 65.59 162.34 66.37C162.7 67.13 162.89 68.02 162.89 69.02C162.89 70.04 162.7 70.94 162.33 71.71Q161.98 72.45 161.42 72.98Q161.12 73.28 160.74 73.51ZM118.24 73.89L116.92 73.89L116.92 65.39L113.47 65.39L113.47 64.17L121.69 64.17L121.69 65.39L118.24 65.39L118.24 73.89ZM135.66 73.89L132.53 73.89L132.52 64.17L133.85 64.17L133.85 67.83L135.54 67.83C135.82 67.83 136.1 67.84 136.37 67.85C136.64 67.86 136.88 67.89 137.1 67.92C137.81 68.07 138.4 68.36 138.87 68.81C139.35 69.26 139.58 69.94 139.58 70.86C139.58 71.69 139.37 72.35 138.93 72.83Q138.7 73.09 138.42 73.29Q137.93 73.63 137.31 73.76C137.07 73.82 136.8 73.85 136.5 73.87C136.22 73.88 135.93 73.89 135.66 73.89ZM142.07 73.89L140.74 73.89L140.74 64.17L142.07 64.17L142.07 73.89ZM149.1 73.89L144.58 73.89L144.58 64.17L148.58 64.17C148.78 64.17 149.03 64.18 149.32 64.21C149.61 64.23 149.89 64.27 150.14 64.34Q150.59 64.46 150.95 64.73Q151.23 64.93 151.45 65.23C151.79 65.67 151.96 66.2 151.96 66.82C151.96 67.17 151.9 67.48 151.79 67.76C151.69 68.03 151.55 68.26 151.35 68.46C151.17 68.67 150.96 68.82 150.74 68.91C150.94 68.95 151.15 69.03 151.36 69.16C152.07 69.59 152.42 70.28 152.42 71.24C152.42 71.91 152.27 72.45 151.95 72.87C151.63 73.29 151.2 73.58 150.67 73.74C150.43 73.8 150.17 73.84 149.89 73.86C149.61 73.88 149.35 73.89 149.1 73.89ZM169.39 73.89L164.86 73.89L164.86 64.17L168.87 64.17Q169.17 64.17 169.6 64.21C169.9 64.23 170.17 64.27 170.42 64.34C170.97 64.49 171.41 64.79 171.74 65.23Q171.85 65.37 171.93 65.52Q172.24 66.09 172.24 66.82C172.24 67.17 172.19 67.48 172.08 67.76C171.98 68.03 171.83 68.26 171.64 68.46C171.45 68.67 171.25 68.82 171.03 68.91C171.22 68.95 171.43 69.03 171.65 69.16C172.36 69.59 172.71 70.28 172.71 71.24C172.71 71.91 172.55 72.45 172.23 72.87C171.91 73.29 171.49 73.58 170.95 73.74Q170.59 73.83 170.17 73.86C169.9 73.88 169.63 73.89 169.39 73.89ZM155.89 71.84C156.43 72.54 157.23 72.89 158.28 72.89C159.36 72.89 160.16 72.53 160.69 71.82C161.22 71.1 161.48 70.17 161.48 69.02C161.48 67.85 161.21 66.92 160.68 66.22C160.15 65.52 159.35 65.17 158.28 65.17C157.19 65.17 156.39 65.53 155.87 66.25C155.34 66.96 155.08 67.89 155.08 69.02C155.08 70.19 155.35 71.13 155.89 71.84ZM145.91 65.3L145.91 68.46L148.63 68.46C148.78 68.46 148.96 68.45 149.15 68.44C149.34 68.41 149.51 68.37 149.66 68.32C149.97 68.21 150.2 68.02 150.35 67.76C150.5 67.5 150.57 67.21 150.57 66.9Q150.57 66.49 150.41 66.16Q150.37 66.08 150.33 66.01C150.17 65.74 149.93 65.56 149.62 65.46C149.4 65.38 149.17 65.33 148.91 65.32C148.67 65.31 148.51 65.3 148.45 65.3L145.91 65.3ZM166.19 65.3L166.19 68.46L168.91 68.46C169.07 68.46 169.24 68.45 169.43 68.44C169.63 68.41 169.8 68.37 169.95 68.32C170.26 68.21 170.49 68.02 170.63 67.76C170.78 67.5 170.86 67.21 170.86 66.9Q170.86 66.49 170.7 66.16Q170.66 66.08 170.61 66.01C170.46 65.74 170.22 65.56 169.9 65.46C169.69 65.38 169.45 65.33 169.2 65.32C168.95 65.31 168.8 65.3 168.73 65.3L166.19 65.3ZM133.85 68.97L133.85 72.76L135.6 72.76C135.8 72.76 136.03 72.75 136.28 72.74C136.53 72.73 136.75 72.69 136.95 72.64Q136.96 72.63 136.97 72.63Q137.43 72.49 137.82 72.1C138.08 71.83 138.21 71.41 138.21 70.86C138.21 70.31 138.09 69.9 137.84 69.62C137.58 69.34 137.25 69.16 136.83 69.07C136.64 69.02 136.43 69 136.22 68.98C136 68.97 135.8 68.97 135.6 68.97L133.85 68.97ZM145.91 69.6L145.91 72.76L149.04 72.76Q149.23 72.76 149.52 72.74C149.71 72.72 149.88 72.69 150.03 72.65C150.38 72.56 150.64 72.38 150.8 72.11C150.97 71.83 151.06 71.53 151.06 71.21Q151.06 70.72 150.84 70.37Q150.77 70.26 150.68 70.16C150.43 69.89 150.1 69.72 149.69 69.66C149.56 69.63 149.41 69.61 149.26 69.61C149.11 69.6 148.97 69.6 148.85 69.6L145.91 69.6ZM166.19 69.6L166.19 72.76L169.33 72.76C169.45 72.76 169.61 72.76 169.8 72.74C169.99 72.72 170.17 72.69 170.32 72.65C170.67 72.56 170.93 72.38 171.09 72.11C171.26 71.83 171.34 71.53 171.34 71.21C171.34 70.78 171.22 70.43 170.96 70.16C170.71 69.89 170.38 69.72 169.97 69.66C169.84 69.63 169.7 69.61 169.54 69.61C169.39 69.6 169.26 69.6 169.14 69.6L166.19 69.6Z" fill="#111111" fill-opacity="1.000000" fill-rule="evenodd"/>
</svg>
