<svg width="81.000000" height="80.000000" viewBox="0 0 81 80" fill="none" xmlns="http://www.w3.org/2000/svg" xmlns:xlink="http://www.w3.org/1999/xlink">
	<desc>
			Created with Pixso.
	</desc>
	<defs>
		<clipPath id="clip1_2416">
			<rect id="Безопасность" rx="0.000000" width="79.000000" height="79.000000" transform="translate(0.500000 0.500000)" fill="white" fill-opacity="0"/>
		</clipPath>
		<clipPath id="clip1_2426">
			<rect id="Документы" rx="0.000000" width="79.000000" height="79.000000" transform="translate(0.500000 0.500000)" fill="white" fill-opacity="0"/>
		</clipPath>
		<clipPath id="clip1_2436">
			<rect id="Время" rx="0.000000" width="79.000000" height="79.000000" transform="translate(0.500000 0.500000)" fill="white" fill-opacity="0"/>
		</clipPath>
		<clipPath id="clip1_2448">
			<rect id="Деньги" rx="0.000000" width="79.000000" height="79.000000" transform="translate(1.500000 0.500000)" fill="white" fill-opacity="0"/>
		</clipPath>
		<linearGradient x1="26.594238" y1="15.157535" x2="29.991062" y2="14.988730" id="paint_linear_1_2422_0" gradientUnits="userSpaceOnUse">
			<stop stop-color="#FF7A00"/>
			<stop offset="1.000000" stop-color="#FFB039"/>
		</linearGradient>
		<linearGradient x1="43.212887" y1="69.208153" x2="46.682976" y2="69.036804" id="paint_linear_1_2424_0" gradientUnits="userSpaceOnUse">
			<stop stop-color="#FF7A00"/>
			<stop offset="1.000000" stop-color="#FFB039"/>
		</linearGradient>
		<linearGradient x1="19.190916" y1="39.999550" x2="60.810291" y2="38.415207" id="paint_linear_1_2425_0" gradientUnits="userSpaceOnUse">
			<stop stop-color="#FF7A00"/>
			<stop offset="1.000000" stop-color="#FFB039"/>
		</linearGradient>
		<linearGradient x1="14.926752" y1="65.307617" x2="50.385654" y2="65.151367" id="paint_linear_1_2431_0" gradientUnits="userSpaceOnUse">
			<stop stop-color="#FF7A00"/>
			<stop offset="1.000000" stop-color="#FFB039"/>
		</linearGradient>
		<linearGradient x1="21.259764" y1="59.057617" x2="50.385548" y2="58.901367" id="paint_linear_1_2432_0" gradientUnits="userSpaceOnUse">
			<stop stop-color="#FF7A00"/>
			<stop offset="1.000000" stop-color="#FFB039"/>
		</linearGradient>
		<linearGradient x1="14.926758" y1="59.057858" x2="18.051760" y2="58.901608" id="paint_linear_1_2433_0" gradientUnits="userSpaceOnUse">
			<stop stop-color="#FF7A00"/>
			<stop offset="1.000000" stop-color="#FFB039"/>
		</linearGradient>
		<linearGradient x1="14.926754" y1="71.557678" x2="50.385815" y2="71.401428" id="paint_linear_1_2434_0" gradientUnits="userSpaceOnUse">
			<stop stop-color="#FF7A00"/>
			<stop offset="1.000000" stop-color="#FFB039"/>
		</linearGradient>
		<linearGradient x1="57.968750" y1="30.339111" x2="61.093750" y2="30.182861" id="paint_linear_1_2435_0" gradientUnits="userSpaceOnUse">
			<stop stop-color="#FF7A00"/>
			<stop offset="1.000000" stop-color="#FFB039"/>
		</linearGradient>
	</defs>
	<rect id="Безопасность" rx="0.000000" width="79.000000" height="79.000000" transform="translate(0.500000 0.500000)" fill="#FFFFFF" fill-opacity="0"/>
	<g clip-path="url(#clip1_2416)">
		<path id="Vector" d="M72.87 13.81C61.86 10.79 50.79 6.1 40.85 0.23C40.32 -0.08 39.67 -0.08 39.14 0.23C28.91 6.27 18.44 10.71 7.12 13.81C6.39 14.01 5.88 14.67 5.88 15.43L5.88 32.63C5.88 50.33 14.05 62.05 20.9 68.77C28.28 76 36.88 80 40 80C43.12 80 51.71 76 59.09 68.77C65.94 62.05 74.11 50.33 74.11 32.63L74.11 15.43C74.11 14.67 73.6 14.01 72.87 13.81ZM70.74 32.63C70.74 49.16 63.12 60.1 56.73 66.36C49.48 73.47 41.72 76.63 40 76.63C38.27 76.63 30.51 73.47 23.26 66.36C16.87 60.1 9.25 49.16 9.25 32.63L9.25 16.71C20.07 13.64 30.15 9.35 40 3.63C49.59 9.2 60.18 13.7 70.74 16.71L70.74 32.63Z" fill="#2B7AF1" fill-opacity="1.000000" fill-rule="nonzero"/>
		<path id="Vector" d="M25.08 16.52C24.74 15.66 23.76 15.23 22.9 15.57C19.89 16.76 16.8 17.85 13.73 18.81C13.02 19.03 12.55 19.68 12.55 20.42L12.55 26.92C12.55 27.85 13.3 28.6 14.23 28.6C15.16 28.6 15.91 27.85 15.91 26.92L15.91 21.65C18.67 20.76 21.43 19.77 24.13 18.7C24.99 18.36 25.42 17.39 25.08 16.52Z" fill="#2B7AF1" fill-opacity="1.000000" fill-rule="nonzero"/>
		<path id="Vector" d="M28.28 16.84C28.5 16.84 28.73 16.8 28.95 16.7L28.98 16.69C29.83 16.31 30.22 15.32 29.84 14.47C29.47 13.62 28.47 13.23 27.62 13.61L27.6 13.62C26.74 13.99 26.36 14.98 26.73 15.83C27.01 16.46 27.63 16.84 28.28 16.84Z" fill="url(#paint_linear_1_2422_0)" fill-opacity="1.000000" fill-rule="nonzero"/>
		<path id="Vector" d="M60.05 54.26C59.27 53.75 58.23 53.97 57.72 54.75C56.33 56.87 54.7 58.9 52.88 60.79C51.38 62.34 49.76 63.78 48.05 65.08C47.31 65.64 47.17 66.7 47.74 67.44C48.07 67.87 48.57 68.1 49.07 68.1C49.43 68.1 49.79 67.99 50.09 67.76C51.93 66.36 53.68 64.8 55.3 63.13C57.27 61.09 59.03 58.89 60.53 56.59C61.04 55.81 60.82 54.77 60.05 54.26Z" fill="#2B7AF1" fill-opacity="1.000000" fill-rule="nonzero"/>
		<path id="Vector" d="M44.14 67.72L44.05 67.78C43.24 68.24 42.97 69.27 43.43 70.08C43.75 70.62 44.31 70.92 44.89 70.92C45.18 70.92 45.47 70.84 45.73 70.69L45.85 70.62C46.65 70.15 46.92 69.12 46.45 68.32C45.98 67.52 44.95 67.25 44.14 67.72Z" fill="url(#paint_linear_1_2424_0)" fill-opacity="1.000000" fill-rule="nonzero"/>
		<path id="Vector" d="M28.52 36.56C27.49 35.53 26.12 34.96 24.66 34.96C23.19 34.96 21.82 35.53 20.79 36.56C18.65 38.69 18.65 42.17 20.79 44.3L30.72 54.24C31.76 55.27 33.13 55.84 34.59 55.84C36.05 55.84 37.43 55.27 38.46 54.24L59.21 33.49C61.34 31.36 61.34 27.89 59.21 25.75C58.17 24.72 56.8 24.15 55.34 24.15C53.87 24.15 52.5 24.72 51.47 25.75L34.59 42.63L28.52 36.56ZM53.85 28.13C54.24 27.74 54.77 27.52 55.34 27.52C55.9 27.52 56.43 27.74 56.83 28.13C57.65 28.95 57.65 30.29 56.83 31.11L36.08 51.86C35.68 52.25 35.15 52.47 34.59 52.47C34.03 52.47 33.5 52.25 33.1 51.86L23.17 41.92C22.34 41.1 22.34 39.76 23.17 38.94C23.56 38.54 24.09 38.32 24.66 38.32C25.22 38.32 25.75 38.54 26.14 38.94L33.4 46.2C33.72 46.51 34.15 46.69 34.59 46.69C35.04 46.69 35.47 46.51 35.78 46.2L53.85 28.13Z" fill="url(#paint_linear_1_2425_0)" fill-opacity="1.000000" fill-rule="nonzero"/>
	</g>
</svg>
