<svg width="40.000000" height="40.000000" viewBox="0 0 40 40" fill="none" xmlns="http://www.w3.org/2000/svg" xmlns:xlink="http://www.w3.org/1999/xlink">
	<desc>
			Created with Pixso.
	</desc>
	<defs>
		<linearGradient x1="-0.000006" y1="19.999973" x2="39.999992" y2="17.999977" id="paint_linear_1_2062_0" gradientUnits="userSpaceOnUse">
			<stop stop-color="#FF7A00"/>
			<stop offset="1.000000" stop-color="#FFB039"/>
		</linearGradient>
	</defs>
	<circle id="Ellipse 9" cx="20.000000" cy="20.000000" r="20.000000" fill="url(#paint_linear_1_2062_0)" fill-opacity="1.000000"/>
	<path id="Vector" d="M17.28 11.68C17.19 11.59 17.12 11.47 17.07 11.35C17.02 11.23 17 11.1 17 10.97C17.01 10.84 17.04 10.71 17.09 10.59C17.15 10.47 17.22 10.36 17.32 10.27C17.41 10.18 17.53 10.11 17.65 10.06C17.77 10.01 17.9 9.99 18.03 10C18.16 10 18.29 10.03 18.41 10.08C18.53 10.14 18.64 10.21 18.73 10.31L27.23 19.31C27.41 19.49 27.5 19.74 27.5 20C27.5 20.25 27.41 20.5 27.23 20.68L18.73 29.68C18.64 29.78 18.53 29.86 18.41 29.92C18.29 29.97 18.16 30 18.03 30.01C17.9 30.01 17.77 29.99 17.64 29.94C17.52 29.9 17.4 29.82 17.31 29.73C17.21 29.64 17.13 29.53 17.08 29.41C17.03 29.29 17 29.16 17 29.03C16.99 28.9 17.02 28.76 17.06 28.64C17.11 28.52 17.18 28.41 17.28 28.31L25.13 20L17.28 11.68Z" fill="#FFFFFF" fill-opacity="1.000000" fill-rule="nonzero"/>
</svg>
