<svg width="80.000000" height="80.000000" viewBox="0 0 80 80" fill="none" xmlns="http://www.w3.org/2000/svg" xmlns:xlink="http://www.w3.org/1999/xlink">
	<desc>
			Created with Pixso.
	</desc>
	<defs>
		<filter id="filter_1_2064_dd" x="0.000000" y="0.000000" width="80.000000" height="80.000000" filterUnits="userSpaceOnUse" color-interpolation-filters="sRGB">
			<feFlood flood-opacity="0" result="BackgroundImageFix"/>
			<feColorMatrix in="SourceAlpha" type="matrix" values="0 0 0 0 0 0 0 0 0 0 0 0 0 0 0 0 0 0 127 0" result="hardAlpha"/>
			<feOffset dx="0" dy="10"/>
			<feGaussianBlur stdDeviation="6.66667"/>
			<feComposite in2="hardAlpha" operator="out" k2="-1" k3="1"/>
			<feColorMatrix type="matrix" values="0 0 0 0 1 0 0 0 0 0.47843 0 0 0 0 0 0 0 0 0.2 0"/>
			<feBlend mode="normal" in2="BackgroundImageFix" result="effect_dropShadow_1"/>
			<feBlend mode="normal" in="SourceGraphic" in2="effect_dropShadow_1" result="shape"/>
		</filter>
		<linearGradient x1="-20.000006" y1="-0.000027" x2="19.999992" y2="-2.000023" id="paint_linear_1_2065_0" gradientUnits="userSpaceOnUse">
			<stop stop-color="#FF7A00"/>
			<stop offset="1.000000" stop-color="#FFB039"/>
		</linearGradient>
	</defs>
	<g filter="url(#filter_1_2064_dd)">
		<circle id="Ellipse 9" r="20.000000" transform="matrix(-1 0 0 1 40 30)" fill="url(#paint_linear_1_2065_0)" fill-opacity="1.000000"/>
		<path id="Vector" d="M42.71 21.68C42.8 21.59 42.87 21.47 42.92 21.35C42.97 21.23 42.99 21.1 42.99 20.97C42.98 20.84 42.95 20.71 42.9 20.59C42.84 20.47 42.77 20.36 42.67 20.27C42.58 20.18 42.46 20.11 42.34 20.06C42.22 20.01 42.09 19.99 41.96 20C41.83 20 41.7 20.03 41.58 20.08C41.46 20.14 41.35 20.21 41.26 20.31L32.76 29.31C32.58 29.49 32.49 29.74 32.49 30C32.49 30.25 32.58 30.5 32.76 30.68L41.26 39.68C41.35 39.78 41.46 39.86 41.58 39.91C41.7 39.97 41.83 40 41.96 40.01C42.09 40.01 42.22 39.99 42.35 39.94C42.47 39.9 42.59 39.82 42.68 39.73C42.78 39.64 42.86 39.53 42.91 39.41C42.96 39.29 42.99 39.16 43 39.03C43 38.9 42.97 38.76 42.93 38.64C42.88 38.52 42.81 38.41 42.71 38.31L34.86 30L42.71 21.68Z" fill="#FFFFFF" fill-opacity="1.000000" fill-rule="nonzero"/>
	</g>
</svg>
