<svg width="40.000000" height="40.000000" viewBox="0 0 40 40" fill="none" xmlns="http://www.w3.org/2000/svg" xmlns:xlink="http://www.w3.org/1999/xlink">
	<desc>
			Created with Pixso.
	</desc>
	<defs>
		<linearGradient x1="-20.000006" y1="-0.000027" x2="19.999992" y2="-2.000023" id="paint_linear_1_2065_0" gradientUnits="userSpaceOnUse">
			<stop stop-color="#FF7A00"/>
			<stop offset="1.000000" stop-color="#FFB039"/>
		</linearGradient>
	</defs>
	<circle id="Ellipse 9" r="20.000000" transform="matrix(-1 0 0 1 20 20)" fill="url(#paint_linear_1_2065_0)" fill-opacity="1.000000"/>
	<path id="Vector" d="M22.71 11.68C22.8 11.59 22.87 11.47 22.92 11.35C22.97 11.23 22.99 11.1 22.99 10.97C22.98 10.84 22.95 10.71 22.9 10.59C22.84 10.47 22.77 10.36 22.67 10.27C22.58 10.18 22.46 10.11 22.34 10.06C22.22 10.01 22.09 9.99 21.96 10C21.83 10 21.7 10.03 21.58 10.08C21.46 10.14 21.35 10.21 21.26 10.31L12.76 19.31C12.58 19.49 12.49 19.74 12.49 20C12.49 20.25 12.58 20.5 12.76 20.68L21.26 29.68C21.35 29.78 21.46 29.86 21.58 29.92C21.7 29.97 21.83 30 21.96 30.01C22.09 30.01 22.22 29.99 22.35 29.94C22.47 29.9 22.59 29.82 22.68 29.73C22.78 29.64 22.86 29.53 22.91 29.41C22.96 29.29 22.99 29.16 23 29.03C23 28.9 22.97 28.76 22.93 28.64C22.88 28.52 22.81 28.41 22.71 28.31L14.86 20L22.71 11.68Z" fill="#FFFFFF" fill-opacity="1.000000" fill-rule="nonzero"/>
</svg>
