<svg width="80.000000" height="80.000000" viewBox="0 0 80 80" fill="none" xmlns="http://www.w3.org/2000/svg" xmlns:xlink="http://www.w3.org/1999/xlink">
	<desc>
			Created with Pixso.
	</desc>
	<defs>
		<filter id="filter_1_2061_dd" x="0.000000" y="0.000000" width="80.000000" height="80.000000" filterUnits="userSpaceOnUse" color-interpolation-filters="sRGB">
			<feFlood flood-opacity="0" result="BackgroundImageFix"/>
			<feColorMatrix in="SourceAlpha" type="matrix" values="0 0 0 0 0 0 0 0 0 0 0 0 0 0 0 0 0 0 127 0" result="hardAlpha"/>
			<feOffset dx="0" dy="10"/>
			<feGaussianBlur stdDeviation="6.66667"/>
			<feComposite in2="hardAlpha" operator="out" k2="-1" k3="1"/>
			<feColorMatrix type="matrix" values="0 0 0 0 1 0 0 0 0 0.47843 0 0 0 0 0 0 0 0 0.2 0"/>
			<feBlend mode="normal" in2="BackgroundImageFix" result="effect_dropShadow_1"/>
			<feBlend mode="normal" in="SourceGraphic" in2="effect_dropShadow_1" result="shape"/>
		</filter>
		<linearGradient x1="19.999994" y1="29.999973" x2="59.999992" y2="27.999977" id="paint_linear_1_2062_0" gradientUnits="userSpaceOnUse">
			<stop stop-color="#FF7A00"/>
			<stop offset="1.000000" stop-color="#FFB039"/>
		</linearGradient>
	</defs>
	<g filter="url(#filter_1_2061_dd)">
		<circle id="Ellipse 9" cx="40.000000" cy="30.000000" r="20.000000" fill="url(#paint_linear_1_2062_0)" fill-opacity="1.000000"/>
		<path id="Vector" d="M37.28 21.68C37.19 21.59 37.12 21.47 37.07 21.35C37.02 21.23 37 21.1 37 20.97C37.01 20.84 37.04 20.71 37.09 20.59C37.15 20.47 37.22 20.36 37.32 20.27C37.41 20.18 37.53 20.11 37.65 20.06C37.77 20.01 37.9 19.99 38.03 20C38.16 20 38.29 20.03 38.41 20.08C38.53 20.14 38.64 20.21 38.73 20.31L47.23 29.31C47.41 29.49 47.5 29.74 47.5 30C47.5 30.25 47.41 30.5 47.23 30.68L38.73 39.68C38.64 39.78 38.53 39.86 38.41 39.91C38.29 39.97 38.16 40 38.03 40.01C37.9 40.01 37.77 39.99 37.64 39.94C37.52 39.9 37.4 39.82 37.31 39.73C37.21 39.64 37.13 39.53 37.08 39.41C37.03 39.29 37 39.16 37 39.03C36.99 38.9 37.02 38.76 37.06 38.64C37.11 38.52 37.18 38.41 37.28 38.31L45.13 30L37.28 21.68Z" fill="#FFFFFF" fill-opacity="1.000000" fill-rule="nonzero"/>
	</g>
</svg>
