<svg width="22.000000" height="22.000000" viewBox="0 0 22 22" fill="none" xmlns="http://www.w3.org/2000/svg" xmlns:xlink="http://www.w3.org/1999/xlink">
	<desc>
			Created with Pixso.
	</desc>
	<defs>
		<clipPath id="clip1_2396">
			<rect id="Location_Icon" rx="0.000000" width="21.000000" height="21.000000" transform="translate(0.500000 0.500000)" fill="white" fill-opacity="0"/>
		</clipPath>
	</defs>
	<rect id="Location_Icon" rx="0.000000" width="21.000000" height="21.000000" transform="translate(0.500000 0.500000)" fill="#FFFFFF" fill-opacity="0"/>
	<g clip-path="url(#clip1_2396)">
		<path id="Vector" d="M11 1.37C8.99 1.37 7.07 2.17 5.65 3.59C4.23 5.01 3.43 6.93 3.43 8.93C3.43 10.57 3.97 12.17 4.96 13.47C4.96 13.47 5.16 13.74 5.2 13.78L11 20.62L16.8 13.78C16.83 13.74 17.03 13.47 17.03 13.47L17.03 13.47C18.02 12.16 18.56 10.57 18.56 8.93C18.56 6.93 17.76 5.01 16.34 3.59C14.92 2.17 13 1.37 11 1.37ZM13.47 12.37L11 10.79L8.52 12.37L8.93 9.57L6.87 7.68L9.76 7.33L11 4.81L12.31 7.33L15.12 7.68L13.06 9.57L13.47 12.37Z" fill="#F73E3E" fill-opacity="1.000000" fill-rule="nonzero"/>
	</g>
</svg>
