<svg width="80.000000" height="80.000000" viewBox="0 0 80 80" fill="none" xmlns="http://www.w3.org/2000/svg" xmlns:xlink="http://www.w3.org/1999/xlink">
	<desc>
			Created with Pixso.
	</desc>
	<defs>
		<clipPath id="clip1_2492">
			<rect id="Время" rx="0.000000" width="79.000000" height="79.000000" transform="translate(0.500000 0.500000)" fill="white" fill-opacity="0"/>
		</clipPath>
		<linearGradient x1="68.089844" y1="68.047974" x2="71.214844" y2="67.891724" id="paint_linear_1_2496_0" gradientUnits="userSpaceOnUse">
			<stop stop-color="#FF7A00"/>
			<stop offset="1.000000" stop-color="#FFB039"/>
		</linearGradient>
		<linearGradient x1="24.199219" y1="46.834858" x2="72.677788" y2="44.410946" id="paint_linear_1_2497_0" gradientUnits="userSpaceOnUse">
			<stop stop-color="#FF7A00"/>
			<stop offset="1.000000" stop-color="#FFB039"/>
		</linearGradient>
		<linearGradient x1="-0.000000" y1="56.475952" x2="3.125000" y2="56.319702" id="paint_linear_1_2503_0" gradientUnits="userSpaceOnUse">
			<stop stop-color="#FF7A00"/>
			<stop offset="1.000000" stop-color="#FFB039"/>
		</linearGradient>
	</defs>
	<rect id="Время" rx="0.000000" width="79.000000" height="79.000000" transform="translate(0.500000 0.500000)" fill="#FFFFFF" fill-opacity="0"/>
	<g clip-path="url(#clip1_2492)">
		<path id="XMLID 389" d="M79.84 43.69C79.12 36.47 75.89 29.65 70.75 24.51C66.36 20.12 60.98 17.29 55.32 16.04L55.32 12.07C57.63 11.49 59.35 9.4 59.35 6.91C59.35 3.98 56.96 1.6 54.03 1.6L42.78 1.6C39.86 1.6 37.47 3.98 37.47 6.91C37.47 9.4 39.19 11.49 41.5 12.07L41.5 16.05C35.86 17.31 30.5 20.13 26.12 24.51C25.16 25.47 24.27 26.48 23.46 27.52C23.42 27.52 23.38 27.52 23.34 27.52L12.21 27.52C11.35 27.52 10.65 28.22 10.65 29.08C10.65 29.94 11.35 30.64 12.21 30.64L21.34 30.64C20.19 32.56 19.27 34.57 18.56 36.65L1.56 36.65C0.69 36.65 0 37.35 0 38.21C0 39.07 0.69 39.77 1.56 39.77L17.68 39.77C17.23 41.75 16.97 43.76 16.9 45.78L10 45.78C9.13 45.78 8.43 46.48 8.43 47.34C8.43 48.2 9.13 48.9 10 48.9L16.95 48.9C17.09 50.93 17.41 52.94 17.93 54.91L7.81 54.91C6.94 54.91 6.25 55.61 6.25 56.47C6.25 57.33 6.94 58.03 7.81 58.03L18.93 58.03C20.46 62.09 22.86 65.89 26.12 69.15C31.26 74.3 38.08 77.53 45.31 78.24C46.35 78.34 47.38 78.39 48.41 78.39C54.51 78.39 60.53 76.63 65.64 73.3C66.36 72.83 66.56 71.86 66.09 71.14C65.62 70.42 64.65 70.21 63.93 70.68C52.75 77.96 37.77 76.39 28.32 66.94C17.24 55.85 17.24 37.81 28.32 26.72C39.41 15.63 57.45 15.63 68.54 26.72C77.98 36.16 79.56 51.12 72.31 62.3C71.84 63.02 72.04 63.99 72.76 64.46C73.49 64.93 74.46 64.72 74.93 64C78.8 58.03 80.55 50.81 79.84 43.69ZM40.6 6.91C40.6 5.7 41.58 4.72 42.78 4.72L54.03 4.72C55.24 4.72 56.22 5.7 56.22 6.91C56.22 8.12 55.24 9.1 54.03 9.1L53.75 9.1L43.06 9.1L42.78 9.1C41.58 9.1 40.6 8.12 40.6 6.91ZM44.63 15.51L44.63 12.22L52.19 12.22L52.19 15.5C49.68 15.21 47.14 15.21 44.63 15.51Z" fill="#2B7AF1" fill-opacity="1.000000" fill-rule="nonzero"/>
		<path id="XMLID 391" d="M69.65 66.48C69.23 66.48 68.83 66.65 68.54 66.94C68.25 67.23 68.08 67.63 68.08 68.04C68.08 68.45 68.25 68.86 68.54 69.15C68.83 69.44 69.24 69.61 69.65 69.61C70.06 69.61 70.46 69.44 70.75 69.15C71.04 68.86 71.21 68.45 71.21 68.04C71.21 67.63 71.04 67.23 70.75 66.94C70.46 66.65 70.06 66.48 69.65 66.48Z" fill="url(#paint_linear_1_2496_0)" fill-opacity="1.000000" fill-rule="nonzero"/>
		<path id="XMLID 394" d="M48.43 22.59C35.07 22.59 24.19 33.46 24.19 46.83C24.19 60.2 35.07 71.07 48.43 71.07C61.8 71.07 72.67 60.2 72.67 46.83C72.67 33.46 61.8 22.59 48.43 22.59ZM48.43 67.94C36.79 67.94 27.32 58.47 27.32 46.83C27.32 35.19 36.79 25.72 48.43 25.72C60.08 25.72 69.55 35.19 69.55 46.83C69.55 58.47 60.08 67.94 48.43 67.94Z" fill="url(#paint_linear_1_2497_0)" fill-opacity="1.000000" fill-rule="nonzero"/>
		<path id="XMLID 397" d="M58.32 34.74L50.58 42.48C49.93 42.16 49.2 41.97 48.43 41.97C47.66 41.97 46.94 42.16 46.29 42.48L42.83 39.01C42.21 38.4 41.23 38.4 40.62 39.01C40.01 39.62 40.01 40.61 40.62 41.22L44.08 44.68C43.76 45.33 43.58 46.06 43.58 46.83C43.58 49.51 45.76 51.69 48.43 51.69C51.11 51.69 53.29 49.51 53.29 46.83C53.29 46.06 53.11 45.33 52.79 44.68L60.3 37.17L60.53 36.95C61.14 36.34 61.14 35.35 60.53 34.74C59.92 34.13 58.93 34.13 58.32 34.74ZM48.43 48.56C47.48 48.56 46.7 47.78 46.7 46.83C46.7 45.88 47.48 45.1 48.43 45.1C49.39 45.1 50.16 45.88 50.16 46.83C50.16 47.78 49.39 48.56 48.43 48.56Z" fill="#2B7AF1" fill-opacity="1.000000" fill-rule="nonzero"/>
		<path id="XMLID 398" d="M65.14 45.29L63.69 45.29C62.83 45.29 62.13 45.99 62.13 46.85C62.13 47.71 62.83 48.41 63.69 48.41L65.14 48.41C66 48.41 66.7 47.71 66.7 46.85C66.7 45.99 66 45.29 65.14 45.29Z" fill="#2B7AF1" fill-opacity="1.000000" fill-rule="nonzero"/>
		<path id="XMLID 399" d="M33.17 45.25L31.73 45.25C30.86 45.25 30.16 45.95 30.16 46.81C30.16 47.67 30.86 48.37 31.73 48.37L33.17 48.37C34.04 48.37 34.74 47.67 34.74 46.81C34.74 45.95 34.04 45.25 33.17 45.25Z" fill="#2B7AF1" fill-opacity="1.000000" fill-rule="nonzero"/>
		<path id="XMLID 400" d="M48.45 33.13C49.32 33.13 50.02 32.43 50.02 31.57L50.02 30.12C50.02 29.26 49.32 28.56 48.45 28.56C47.59 28.56 46.89 29.26 46.89 30.12L46.89 31.57C46.89 32.43 47.59 33.13 48.45 33.13Z" fill="#2B7AF1" fill-opacity="1.000000" fill-rule="nonzero"/>
		<path id="XMLID 424" d="M48.41 60.53C47.55 60.53 46.85 61.23 46.85 62.09L46.85 63.54C46.85 64.4 47.55 65.1 48.41 65.1C49.28 65.1 49.98 64.4 49.98 63.54L49.98 62.09C49.98 61.23 49.28 60.53 48.41 60.53Z" fill="#2B7AF1" fill-opacity="1.000000" fill-rule="nonzero"/>
		<path id="XMLID 425" d="M1.56 54.91C1.15 54.91 0.74 55.08 0.45 55.37C0.16 55.66 0 56.06 0 56.47C0 56.88 0.16 57.29 0.45 57.58C0.74 57.87 1.15 58.03 1.56 58.03C1.97 58.03 2.37 57.87 2.66 57.58C2.95 57.29 3.12 56.88 3.12 56.47C3.12 56.06 2.95 55.66 2.66 55.37C2.37 55.08 1.97 54.91 1.56 54.91Z" fill="url(#paint_linear_1_2503_0)" fill-opacity="1.000000" fill-rule="nonzero"/>
	</g>
</svg>
